<svg version="1.1" xmlns="http://www.w3.org/2000/svg" xmlns:xlink="http://www.w3.org/1999/xlink" width="214.78677" height="132.02079" viewBox="0,0,214.78677,132.02079"><g transform="translate(-212.60661,-113.9896)"><g data-paper-data="{&quot;isPaintingLayer&quot;:true}" fill-rule="nonzero" stroke-linecap="butt" stroke-linejoin="miter" stroke-miterlimit="10" stroke-dasharray="" stroke-dashoffset="0" style="mix-blend-mode: normal"><path d="M212.60662,246.0104l13.08136,-104.34779l201.70541,-27.673l-15.88514,107.24897z" fill="#4a0080" stroke="#000000" stroke-width="0"/><g stroke="none" stroke-width="0.5"><g fill="#000000"><path d="M249.90992,187.35637c1.72854,-0.01605 6.24281,-0.89114 6.24281,2.5c0,1.83185 -1.18349,2.3564 -2.5,2.5c-3.58544,0.39109 -7.27591,1.10359 -10.72759,1.50681c-0.34175,1.70603 -0.84898,3.2936 -1.68791,4.16312c-0.68135,0.7062 -3.20817,2.08576 -3.20817,-1.25749c-0.04875,-0.19487 -0.07465,-0.39879 -0.07465,-0.60877c0,-0.19121 0.02147,-0.37742 0.06213,-0.55633c0.43696,-4.70114 -0.48547,-13.91284 1.27562,-15.23134c3.09963,-2.32065 1.24987,-0.44544 4.36231,-0.40313c2.63956,0.03588 5.14339,-0.17464 7.73288,-0.19699c0.68113,-0.00588 6.18626,-0.27868 5.15936,2.5c-1.98967,5.3838 -8.625,0.9108 -12.38727,3.27949c-0.66422,0.41819 -0.21717,1.55404 -0.36587,2.32611c2.28098,-0.39765 4.57085,-0.50714 6.11635,-0.52149z"/><path d="M260.25187,187.35637c1.5163,0.86646 2.12244,2.02156 2.42175,3.12301c0.49595,1.82511 0.14941,3.50293 1.70512,3.47615c3.83429,-0.066 2.19649,-9.52373 6.74217,-6.9262c2.54335,1.45335 3.19684,14.33767 -1.62588,13.13199c-0.89163,-0.22291 -0.93275,-1.82871 -1.81902,-2.07206c-1.98636,-0.54541 -5.1305,2.007 -7.81297,-0.25995c-1.3606,-1.14983 -2.87124,-8.61004 -1.7657,-9.24178z"/><path d="M287.02011,199.08875c-1.5163,-0.86646 -2.12245,-2.02156 -2.42175,-3.12301c-0.49595,-1.82511 -0.14941,-3.50293 -1.70512,-3.47615c-3.83429,0.066 -2.19649,9.52373 -6.74216,6.9262c-2.54335,-1.45335 -3.19684,-14.33767 1.62588,-13.13199c0.89163,0.22291 0.93275,1.82871 1.81902,2.07206c1.98636,0.54541 5.1305,-2.007 7.81297,0.25995c1.3606,1.14983 2.87125,8.61004 1.7657,9.24178z"/><path d="M300.4172,180.7439c1.5319,-1.35939 5.17316,-1.29542 4.6875,1.44698c-0.21444,1.21089 -1.27549,3.08365 -2.61336,5.04307c0.52395,0.01991 1.00651,0.1046 1.39641,0.26783c3.45404,1.44598 3.74802,6.97444 3.38385,10.15281c-0.30635,2.67371 -2.87772,3.05978 -4.6875,1.25c-0.27121,-0.27121 -0.53478,-6.60426 -0.70982,-6.56704c-4.52922,0.96338 -4.0415,5.78796 -5.78258,6.78286c-0.43488,0.73685 -1.23699,1.23117 -2.15454,1.23117c-1.38071,0 -2.5,-1.11929 -2.5,-2.5c0,-0.22264 0.02911,-0.43849 0.08372,-0.64394c-1.27726,-3.63665 -0.51421,-8.98372 -0.57619,-12.10984c-0.03582,-1.80688 -0.98028,-4.81594 2.30301,-4.81594c2.3361,0 2.79454,2.93467 2.89324,5.63399c1.64456,-2.28746 3.38907,-4.38465 4.27627,-5.17194z"/><path d="M314.74019,190.08341c0.06173,0.10973 0.11335,0.2374 0.1564,0.3785c0.09833,0.26435 0.15322,0.54985 0.15599,0.84779c0.10535,1.05375 -0.00525,2.30788 0.00011,2.77165c0.01151,0.99506 1.93908,1.02836 2.23591,1.97818c0.84821,2.71418 -2.36554,4.53039 -4.50849,3.76505c-1.68596,-0.60213 -2.70245,-3.98056 -2.72742,-5.53633c-0.02267,-1.41242 -0.88101,-3.52284 0.34546,-4.22368c0.43488,-0.73685 1.23699,-1.23117 2.15454,-1.23117c0.81357,0 1.53638,0.38863 1.99291,0.99036c0.07451,0.07697 0.14011,0.16278 0.19459,0.25964z"/><path d="M314.95419,184.0448c-0.07202,0.3335 -0.29742,0.69074 -0.61536,1.02745c-0.39364,0.69938 -1.11408,1.19024 -1.95422,1.26549c-1.18736,0.41967 -2.35251,0.23382 -2.43919,-1.32635c-0.18309,-0.34754 -0.28672,-0.74346 -0.28672,-1.16358c0,-1.38071 1.11929,-2.5 2.5,-2.5c0.34591,0 0.67541,0.07025 0.97501,0.19726c1.18084,0.20047 2.12905,1.0709 1.82048,2.49973z"/><path d="M331.876,199.46239c-1.51629,-0.86646 -2.12244,-2.02156 -2.42175,-3.12301c-0.49594,-1.82511 -0.14941,-3.50293 -1.70512,-3.47615c-3.83429,0.066 -2.19649,9.52373 -6.74216,6.9262c-2.54335,-1.45335 -3.19684,-14.33767 1.62588,-13.13199c0.89163,0.22291 0.93275,1.82871 1.81902,2.07206c1.98636,0.54541 5.1305,-2.007 7.81297,0.25995c1.3606,1.14983 2.87124,8.61004 1.7657,9.24178z"/><path d="M342.28891,179.43112c1.47919,1.97225 -1.96691,5.63876 -4.58256,7.21008c-0.45255,0.45344 -1.07827,0.73399 -1.76952,0.73399c-1.38071,0 -2.5,-1.11929 -2.5,-2.5c0,-0.79341 0.3696,-1.5005 0.94602,-1.95848c1.88612,-2.65998 6.06119,-5.94541 7.90606,-3.48559z"/><path d="M247.94982,164.8642c4.73919,-0.00606 4.02471,-7.96368 4.10486,-11.11252c0.04342,-1.7056 -0.30014,-4.28392 2.26296,-4.28392c3.5485,0 2.06062,7.30843 1.97261,9.69733c-0.26011,7.06074 -4.4094,10.86717 -10.68299,10.69912c-5.84596,-0.1566 -6.43406,-8.03646 -7.15183,-12.66572c-0.26855,-1.732 -1.06457,-5.72088 0.16892,-6.49956c0.39364,-0.73685 1.1197,-1.23117 1.95025,-1.23117c1.2498,0 2.26296,1.11929 2.26296,2.5c0,0.29693 -0.04685,0.58177 -0.13285,0.84599c1.15421,4.80537 -0.92288,12.05835 5.24511,12.05046z"/><path d="M270.54568,170.12733c-1.5163,-0.86646 -2.12245,-2.02156 -2.42175,-3.12302c-0.49595,-1.82511 -0.14941,-3.50292 -1.70512,-3.47614c-3.83429,0.066 -2.19649,9.52373 -6.74216,6.9262c-2.54335,-1.45335 -3.19683,-14.33767 1.62588,-13.13199c0.89163,0.22291 0.93275,1.82871 1.81902,2.07206c1.98636,0.54541 5.1305,-2.007 7.81297,0.25994c1.3606,1.14983 2.87125,8.61004 1.7657,9.24178z"/><path d="M285.27389,170.52042l-0.24157,0.06039h-4.38824l-0.24157,-0.06039l-0.24872,0.01184l-0.81264,-0.16253l-0.14277,-0.06763l-0.15751,-0.01212l-0.48758,-0.16252l-0.15181,-0.09661l-0.17566,-0.03904l-0.32506,-0.16252l-0.11994,-0.10281l-0.14878,-0.05313l-0.46011,-0.30675l-0.03827,-0.00213l-0.42088,-0.49104l-0.0684,-0.07524l-0.12256,-0.0817l-0.03826,-0.00213l-0.42088,-0.49103l-0.43504,-0.47854l0.00263,-0.03823l-0.24068,-0.48137l-0.1014,-0.15211l-0.15001,-0.15001l-0.25376,-0.42293l-0.16598,-0.09484l-0.07791,-0.31163l-0.16527,-0.27545l0.0503,-0.18444l-0.11962,-0.47848v-0.64952l-0.01558,-0.02336l0.01558,-0.0701v-0.06966l0.13932,-0.55728l0.12461,-0.56076l0.03116,-0.06231l0.01741,-0.06966l0.02438,-0.01394l0.41464,-0.82926l0.10281,-0.11995l0.05313,-0.14877l0.32505,-0.48758l0.18425,-0.1675l0.12811,-0.21352l0.32506,-0.32505l0.34461,-0.20677l0.30513,-0.26153l0.5109,-0.25545l0.35808,-0.23872l0.45746,-0.16337l0.439,-0.20795l0.7543,-0.15086l0.5924,-0.1481h0.06096l0.05509,-0.02609l0.81264,-0.16253l0.24873,0.01184l0.24156,-0.06039h4.55077l0.24157,0.06039l0.24872,-0.01184l0.56989,0.11398h0.07691l0.02337,-0.01558l0.0701,0.01558h0.06966l0.55728,0.13932l0.56075,0.12461l0.06231,0.03115l0.06966,0.01741l0.01393,0.02438l0.17916,0.08957l0.15497,0.13284l0.12453,0.00691l0.32251,0.37626l0.37626,0.32251l0.00691,0.12453l0.13284,0.15497l0.08958,0.17916l0.02438,0.01393l0.01741,0.06966l0.03116,0.06231l0.12461,0.56076l0.13932,0.55728v0.06966l0.01558,0.0701l-0.01558,0.02336v0.50428l0.08788,0.35154v0.30776l0.07465,0.29857v7.80132l-0.04365,0.17457l0.01852,0.17899l-0.16253,1.13769l-0.08573,0.21044l-0.01743,0.22657l-0.32506,0.97517l-0.09661,0.15181l-0.03903,0.17566l-0.32506,0.65011l-0.0638,0.07442l-0.02854,0.09378l-0.48759,0.81264l-0.0431,0.0431l-0.02051,0.05741l-0.13934,0.20901l-0.05665,0.16996l-0.09661,0.15181l-0.03904,0.17566l-0.32506,0.65011l-0.10281,0.11995l-0.05313,0.14878l-0.65011,0.97516l-0.18425,0.1675l-0.12811,0.21352l-1.13769,1.13769l-0.34461,0.20676l-0.30512,0.26154l-0.97517,0.48758l-0.17566,0.03903l-0.15181,0.09661l-0.80661,0.26887l-0.81626,0.40813l-0.32596,0.07244l-0.30178,0.14294l-0.81264,0.16252l-0.07095,-0.00337l-0.06578,0.0268l-1.01002,0.14429l-0.52499,0.13125h-0.30777l-0.29858,0.07464h-1.13769l-0.09758,-0.02439l-0.07576,0.03788l-0.53034,-0.1894l-0.54632,-0.13658l-0.04203,-0.07354l-0.09472,-0.03383l-0.48758,-0.32505l-0.28473,-0.31321l-0.32852,-0.26692l-0.48758,-0.65011l-0.08818,-0.20943l-0.14788,-0.17253l-0.25211,-0.50421l-0.02438,-0.01394l-0.01741,-0.06966l-0.03116,-0.06231l-0.12461,-0.56076l-0.13932,-0.55728v-0.06966l-0.01558,-0.0701l0.01558,-0.02336v-1.1371l0.04951,-0.19802l-0.04951,-0.11448l0.19231,-0.45673l0.12019,-0.48077l0.10829,-0.06188l0.07921,-0.18812l0.38971,-0.51962l0.00155,-0.02803l0.05452,-0.04673l0.0418,-0.05573l0.44582,-0.36223l0.43614,-0.37384l0.0623,-0.03115l0.05573,-0.04528l0.02786,0.00349l0.30259,-0.1513l0.46977,-0.35233l0.20943,-0.08818l0.17254,-0.14789l0.32505,-0.16253l1.25779,-0.27951l2.09631,1.39755l-0.13975,2.51557l-0.42721,0.36618l0.02151,-0.00307l0.4163,-0.08326l0.67572,-0.33786l0.17566,-0.03903l0.15181,-0.09661l0.80661,-0.26887l0.45339,-0.2267l0.67577,-0.67578l0.42646,-0.63969l0.176,-0.35198l0.10634,-0.31903l0.17928,-0.28172l0.11231,-0.31446l0.29206,-0.43809l0.40758,-0.67929l0.20266,-0.40532l0.19759,-0.59275l0.10552,-0.73865v-0.78704zM281.70428,163.91718l-0.51156,0.10231l-0.5924,0.1481h-0.06096l-0.05509,0.02609l-0.32767,0.06554l-0.07608,0.05072l-0.14877,0.05313l-0.11994,0.10281l-0.18936,0.09468l0.01376,0.02063l0.05313,0.14878l0.10281,0.11995l0.03251,0.06501l0.36249,0.42291l0.0684,0.07524l0.02053,0.01368l0.02693,0.01347l0.17138,0.05712l0.41727,0.08346h3.89314l0.56989,-0.11398l0.10315,0.00491v-1.47141l-0.02079,-0.08315z"/><path d="M305.57459,161.25465c0.6739,3.03252 -3.63413,5.34101 -4.84043,1.77594c-0.17197,-0.50822 -0.91949,0.56444 -1.41977,0.7583c-0.23977,0.09291 -0.7123,0.28954 -1.26624,0.48729c0.02724,1.35492 -0.03877,2.65148 -0.13682,3.61595c0.01614,0.11475 0.02447,0.232 0.02447,0.3512c0,0.40532 -0.09645,0.7881 -0.26765,1.12665c-0.41201,0.81474 -1.25695,1.37335 -2.23235,1.37335c-1.38071,0 -2.5,-1.11929 -2.5,-2.5c0,-0.28132 0.04647,-0.55177 0.13214,-0.80413c-1.32382,-4.1338 -0.1175,-10.1473 2.20533,-10.1473c0.83085,0 1.42981,0.58366 1.85389,1.49591c3.31392,-1.59008 7.53819,-1.62471 8.44742,2.46684z"/><path d="M312.8245,170.31245h-1.62527l-0.38988,-0.09747l-0.40069,-0.03083l-0.48759,-0.16252l-0.1518,-0.09661l-0.17566,-0.03903l-0.32506,-0.16253l-0.11994,-0.10281l-0.14878,-0.05313l-0.48758,-0.32506l-0.1675,-0.18425l-0.21352,-0.12811l-0.20971,-0.20971l-0.02754,-0.00551l-0.03855,-0.06058l-0.04925,-0.04926l-0.29555,-0.49257l-0.3084,-0.48462l-0.02203,-0.06608l-0.03694,-0.06158l0.00739,-0.02709l-0.05476,-0.16428l-0.08308,-0.16615l-0.05973,-0.26877l-0.12956,-0.24293l-0.13924,-0.55696l-0.13217,-0.39649l-0.03082,-0.4007l-0.09747,-0.38987v-2.9255l0.11962,-0.47848l-0.0503,-0.18443l0.16527,-0.27545l0.07791,-0.31164l0.16598,-0.09484l0.25376,-0.42292l0.32506,-0.32505l0.21351,-0.12811l0.1675,-0.18425l0.97517,-0.65011l0.40291,-0.1439l0.3775,-0.20134l1.20707,-0.30177l0.3965,-0.13216l0.09774,-0.00752l0.08649,-0.04613l0.65011,-0.16253h0.30777l0.29857,-0.07464h0.60573l0.77107,-0.12851l0.20828,0.01666l0.20271,-0.05068h2.9255l0.24157,0.06039l0.24872,-0.01184l0.74459,0.14891l1.069,0.15272l0.12154,0.04952h0.13125l0.65011,0.16253l0.24293,0.12956l0.26877,0.05973l0.4912,0.2456l0.31903,0.10634l0.72469,0.46116l0.1647,0.03294l0.07686,0.12078l0.12078,0.07686l0.03294,0.1647l0.46116,0.72469l0.10635,0.31903l0.08307,0.16614l0.05972,0.26877l0.12956,0.24293l0.16253,0.65011v0.30777l0.07465,0.29857v1.30022l-0.07465,0.29857v0.30776l-0.16253,0.65011l-0.12956,0.24293l-0.05972,0.26877l-0.20232,0.40465l-0.09597,0.38388l-0.20133,0.3775l-0.14389,0.40291l-0.32506,0.48758l-0.18425,0.1675l-0.12811,0.21352l-0.48758,0.48758l-0.21352,0.12811l-0.1675,0.18425l-0.97516,0.65011l-0.31447,0.11231l-0.28171,0.17927l-0.97517,0.32505l-0.15751,0.01212l-0.14276,0.06762l-0.81264,0.16253l-0.24872,-0.01184l-0.24157,0.06039h-3.25055l-0.82814,-0.20704c-0.15287,0.02921 -0.31069,0.04451 -0.47208,0.04451zM318.05491,165.22156l0.49062,-0.32708l0.09378,-0.09378l0.04875,-0.19503l0.12957,-0.24293l0.05972,-0.26877l0.20232,-0.40465l0.02133,-0.0853v-0.58452l-0.25661,-0.06415l-1.01002,-0.14429l-0.06579,-0.0268l-0.07096,0.00338l-0.56989,-0.11398h-2.47104l-0.77107,0.12851l-0.20828,-0.01666l-0.20271,0.05068h-0.50487l-0.25839,0.0646l-0.3965,0.13217l-0.09774,0.00752l-0.08649,0.04613l-0.70678,0.1767v1.21796l0.03424,0.10271l0.00752,0.09774l0.04613,0.08649l0.09596,0.38387l0.0398,0.0796l0.01795,0.08078h1.15906c0.37202,0 0.72507,0.08126 1.04235,0.227l0.25787,-0.06447h3.003l0.41727,-0.08346z"/><path d="M327.86327,158.02131c1.5163,0.86646 2.12244,2.02156 2.42175,3.12301c0.49595,1.82511 0.14941,3.50293 1.70512,3.47615c3.83428,-0.066 2.19649,-9.52373 6.74216,-6.9262c2.54335,1.45335 3.19684,14.33767 -1.62588,13.13199c-0.89163,-0.22291 -0.93275,-1.82871 -1.81902,-2.07206c-1.98636,-0.54541 -5.1305,2.007 -7.81297,-0.25995c-1.3606,-1.14983 -2.87124,-8.61004 -1.7657,-9.24178z"/><path d="M355.22247,170.12733c-1.5163,-0.86646 -2.12245,-2.02156 -2.42175,-3.12302c-0.49595,-1.82511 -0.14941,-3.50292 -1.70512,-3.47614c-3.83429,0.066 -2.19649,9.52373 -6.74216,6.9262c-2.54335,-1.45335 -3.19684,-14.33767 1.62588,-13.13199c0.89163,0.22291 0.93275,1.82871 1.81902,2.07206c1.98636,0.54541 5.1305,-2.007 7.81297,0.25994c1.3606,1.14983 2.87124,8.61004 1.7657,9.24178z"/><path d="M372.94524,168.44999l-0.00212,0.04252l-0.05692,0.05444c-0.24707,0.388 -0.58085,0.70245 -0.96981,0.90818l-0.13072,0.07292l-0.01393,0.02721l-0.06966,0.01943l-0.0623,0.03476l-0.56076,0.13904l-0.55728,0.15545h-0.06966l-0.07009,0.01738l-0.02337,-0.01738h-0.34175l-1.00164,0.27939h-0.30776l-0.29857,0.08329h-0.34235l-0.35153,0.09806h-0.30776l-0.29858,0.08328h-3.24996l-0.02337,0.01738l-0.07009,-0.01738h-0.06966l-0.55728,-0.15544l-0.56075,-0.13904l-0.0623,-0.03476l-0.06966,-0.01943l-0.01394,-0.0272l-0.50421,-0.28129l-0.30513,-0.29181l-0.34461,-0.2307l-1.3474,-1.50338l-0.02754,-0.00615l-0.03855,-0.06759l-0.04926,-0.05496l-0.29555,-0.54959l-0.3084,-0.54072l-0.02203,-0.07373l-0.03695,-0.0687l0.00739,-0.03023l-0.05476,-0.1833l-0.01012,-0.02258l-0.02439,-0.01555l-0.01741,-0.07773l-0.03115,-0.06951l-0.12461,-0.62566l-0.13932,-0.62179v-0.07772l-0.01557,-0.07821l0.01557,-0.02606v-0.54271l-0.01557,-0.02607l0.01557,-0.0782v-0.07772l0.13932,-0.62179l0.12461,-0.62566l0.03115,-0.06952l0.01741,-0.07772l0.02439,-0.01555l0.2521,-0.56258l0.26153,-0.34044l0.20677,-0.3845l0.81264,-0.9067l0.21352,-0.14294l0.1675,-0.20558l0.48758,-0.36268l0.40291,-0.16056l0.3775,-0.22464l0.38387,-0.10708l0.40465,-0.22575l0.26876,-0.06664l0.24293,-0.14457l1.30022,-0.36268h0.30776l0.29858,-0.08329h3.51351v-0.37525l-0.15512,-2.42307l-0.1613,-2.15965l0.01709,-0.11682l-0.02573,-0.11483v-6.34693l0.3125,-1.3947l2.1875,-1.3947l2.1875,1.3947l0.3125,1.3947v6.23091l0.15389,2.06047l-0.00245,0.01676l0.00473,0.01614l0.16253,2.53878l-0.01574,0.10012l0.02209,0.09861v3.31216l0.01256,0.008l0.07791,0.34771l0.16527,0.30733l-0.0503,0.20578l0.11962,0.53387v2.53877l-0.09747,0.43501l-0.03083,0.44707l-0.19676,0.65862v0.09137l-0.3125,1.3947l-0.72688,0.46344c-0.00407,0.00714 -0.00817,0.01425 -0.01229,0.02134zM365.79117,163.73833l-0.73541,0.20513l-0.40465,0.22575l-0.26877,0.06664l-0.24293,0.14456l-0.1371,0.03825l0.40377,0.45051h2.39484l0.35154,-0.09806h0.30777l0.29857,-0.08328h0.34235l0.89578,-0.24987v-0.69962z"/><path d="M406.36473,168.44999l-0.00212,0.04252l-0.05692,0.05444c-0.24707,0.388 -0.58085,0.70245 -0.96981,0.90818l-0.13072,0.07292l-0.01393,0.02721l-0.06966,0.01943l-0.0623,0.03476l-0.56075,0.13904l-0.55728,0.15545h-0.06966l-0.07009,0.01738l-0.02337,-0.01738h-0.34175l-1.00164,0.27939h-0.30776l-0.29857,0.08329h-0.34235l-0.35153,0.09806h-0.30777l-0.29858,0.08328h-3.24996l-0.02337,0.01738l-0.07009,-0.01738h-0.06966l-0.55728,-0.15544l-0.56075,-0.13904l-0.06231,-0.03476l-0.06966,-0.01943l-0.01394,-0.0272l-0.50421,-0.28129l-0.30513,-0.29181l-0.34461,-0.2307l-1.34741,-1.50338l-0.02754,-0.00615l-0.03855,-0.06759l-0.04926,-0.05496l-0.29555,-0.54959l-0.30839,-0.54072l-0.02203,-0.07373l-0.03695,-0.0687l0.00739,-0.03023l-0.05476,-0.1833l-0.01012,-0.02258l-0.02438,-0.01555l-0.01742,-0.07773l-0.03115,-0.06951l-0.12462,-0.62566l-0.13932,-0.62179v-0.07772l-0.01558,-0.07821l0.01558,-0.02606v-0.54271l-0.01558,-0.02607l0.01558,-0.0782v-0.07772l0.13932,-0.62179l0.12462,-0.62566l0.03115,-0.06952l0.01742,-0.07772l0.02438,-0.01555l0.2521,-0.56258l0.26154,-0.34044l0.20676,-0.3845l0.81264,-0.9067l0.21352,-0.14294l0.1675,-0.20558l0.48758,-0.36268l0.40291,-0.16056l0.3775,-0.22464l0.38387,-0.10708l0.40465,-0.22575l0.26876,-0.06664l0.24293,-0.14457l1.30022,-0.36268h0.30777l0.29857,-0.08329h3.51351v-0.37525l-0.15512,-2.42307l-0.1613,-2.15965l0.0171,-0.11682l-0.02573,-0.11483v-6.34693l0.3125,-1.3947l2.1875,-1.3947l2.1875,1.3947l0.3125,1.3947v6.23091l0.15389,2.06047l-0.00245,0.01676l0.00473,0.01614l0.16253,2.53878l-0.01574,0.10012l0.02209,0.09861v3.31216l0.01256,0.008l0.07791,0.34771l0.16527,0.30733l-0.0503,0.20578l0.11962,0.53387v2.53877l-0.09747,0.43501l-0.03082,0.44707l-0.19676,0.65862v0.09137l-0.3125,1.3947l-0.72688,0.46344c-0.00407,0.00714 -0.00817,0.01425 -0.01229,0.02134zM399.21066,163.73833l-0.73541,0.20513l-0.40465,0.22575l-0.26877,0.06664l-0.24293,0.14456l-0.1371,0.03825l0.40377,0.45051h2.39484l0.35153,-0.09806h0.30777l0.29858,-0.08328h0.34234l0.89578,-0.24987v-0.69962z"/><path d="M242.61802,216.23883c0.00132,0.14808 2.01591,0.33986 2.10554,0.34137c1.31722,0.02229 13.39994,-1.82174 10.34287,4.04752c-1.30211,2.4999 -14.95106,2.25205 -16.6572,0.46096c-2.24246,-2.35414 -1.27544,-5.14949 -1.23611,-8.27222c0.03937,-3.12559 -2.32665,-7.81867 0.38734,-9.36951c0.4876,-0.82618 1.38695,-1.38043 2.41574,-1.38043c1.54809,0 2.80308,1.25498 2.80308,2.80308c0,0.10118 -0.00536,0.2011 -0.01582,0.29951c1.20088,3.11191 -0.18009,7.20516 -0.14545,11.06971z"/><path d="M274.29532,208.69046c1.5163,0.86646 2.12244,2.02156 2.42175,3.12301c0.49595,1.82511 0.14941,3.50293 1.70512,3.47615c3.83429,-0.066 2.19649,-9.52373 6.74217,-6.9262c2.54335,1.45335 3.19684,14.33767 -1.62588,13.13199c-0.89163,-0.22291 -0.93275,-1.82871 -1.81902,-2.07206c-1.98636,-0.54541 -5.1305,2.007 -7.81297,-0.25995c-1.3606,-1.14983 -2.87124,-8.61004 -1.7657,-9.24178z"/><path d="M301.87579,220.79648c-1.5163,-0.86646 -2.12244,-2.02156 -2.42175,-3.12302c-0.49595,-1.82511 -0.14941,-3.50293 -1.70512,-3.47615c-3.83429,0.066 -2.19649,9.52373 -6.74216,6.9262c-2.54335,-1.45335 -3.19684,-14.33767 1.62588,-13.13199c0.89163,0.22291 0.93275,1.82871 1.81902,2.07206c1.98636,0.54541 5.1305,-2.007 7.81297,0.25994c1.3606,1.14983 2.87124,8.61004 1.7657,9.24178z"/><path d="M390.27546,163.21696c-0.4681,0.81916 -6.79663,0.31071 -7.97436,0.5864c-0.39011,0.09132 -1.25373,-0.00507 -1.14057,0.37929c0.43811,1.48804 7.83863,0.02544 8.67978,2.54888c0.65684,1.97053 -1.30352,3.51122 -3.02414,3.51122c-3.373,0 -9.89163,-0.588 -10.91429,-4.67865c-1.62831,-6.51323 9.7268,-9.29243 14.35474,-6.68917c0.09686,0.05448 0.18268,0.12008 0.25964,0.19459c0.50467,0.48857 0.62883,1.36023 0.99036,1.99291z" data-paper-data="{&quot;index&quot;:null}"/><path d="M319.21017,218.51514c-0.71326,1.24821 -1.9728,1.99354 -3.45848,2.30967c-5.0023,1.06444 -12.56822,-2.73687 -10.47719,-8.59177c1.47697,-4.13551 14.47967,-7.0137 14.47967,-1.87805c0,4.17031 -7.65506,1.44464 -9.79217,4.02759c-0.48761,0.58934 1.94777,1.02434 2.10595,1.05001c1.43345,0.23262 5.59623,0.37709 5.91105,0.92801z"/><path d="M320.795,206.77476c0.18157,-1.8337 -0.60764,-5.25048 2.57561,-5.25048c1.67912,0 2.43451,1.18349 2.5,2.5c0.08396,1.68783 -1.69325,5.21294 -0.00941,5.06974c4.9802,-0.42355 6.51538,1.28513 6.9019,6.72391c0.11226,1.57972 0.85843,2.1951 0.15017,3.61161c-1.2152,2.4304 -3.57343,2.58813 -4.84224,0.29647c-0.66537,-1.20176 0.6913,-5.23852 -0.65759,-5.86772c-1.46591,-0.68378 -1.86636,1.68704 -1.9738,3.67516c0.18822,0.35126 0.29496,0.75271 0.29496,1.1791c0,0.30256 -0.05375,0.59256 -0.15221,0.86098c-0.05157,0.14058 -0.11541,0.27525 -0.19022,0.4027c-0.43417,0.7397 -1.23788,1.23632 -2.15757,1.23632c-1.38071,0 -2.5,-1.11929 -2.5,-2.5c0,-0.22962 0.03096,-0.45203 0.08893,-0.66325c-1.11149,-3.35468 -0.34009,-8.12812 -0.02854,-11.27453z"/><path d="M348.11768,213.8861c-0.4681,0.81916 -6.79663,0.31071 -7.97436,0.5864c-0.39011,0.09132 -1.25373,-0.00507 -1.14057,0.37928c0.43811,1.48805 7.83863,0.02544 8.67978,2.54889c0.65684,1.97053 -1.30352,3.51122 -3.02413,3.51122c-3.373,0 -9.89163,-0.588 -10.91429,-4.67865c-1.6283,-6.51322 9.7268,-9.29243 14.35474,-6.68917c0.09686,0.05448 0.18268,0.12008 0.25964,0.19459c0.50467,0.48857 0.62883,1.36023 0.99036,1.99291z" data-paper-data="{&quot;index&quot;:null}"/><path d="M257.08589,215.00026c0.46809,-0.81917 6.79663,-1.58533 7.97436,-1.86102c0.39011,-0.09132 0.69609,-1.18989 0.58293,-1.57424c-0.43812,-1.48804 -7.28099,2.44413 -8.12214,-0.07932c-0.65684,-1.97052 1.30353,-3.51121 3.02414,-3.51121c3.37299,0 8.85601,-1.56291 10.27698,6.90922c1.6283,6.51322 -9.08949,7.06186 -13.71743,4.4586c-0.09686,-0.05448 -0.18268,-0.12008 -0.25964,-0.19459c-0.50467,-0.48857 -0.62883,-1.36023 -0.99036,-1.99291z" data-paper-data="{&quot;index&quot;:null}"/><path d="M363.24913,211.53926c0.6739,3.03252 -3.63413,5.34101 -4.84043,1.77594c-0.17197,-0.50822 -0.91949,0.56444 -1.41977,0.7583c-0.23977,0.09291 -0.7123,0.28954 -1.26624,0.48729c0.02724,1.35492 -0.03877,2.65148 -0.13682,3.61595c0.01614,0.11475 0.02447,0.232 0.02447,0.3512c0,0.40532 -0.09645,0.7881 -0.26765,1.12665c-0.41201,0.81474 -1.25695,1.37335 -2.23235,1.37335c-1.38071,0 -2.5,-1.11929 -2.5,-2.5c0,-0.28132 0.04647,-0.55177 0.13214,-0.80413c-1.32382,-4.1338 -0.1175,-10.1473 2.20533,-10.1473c0.83085,0 1.42981,0.58366 1.85389,1.49591c3.31392,-1.59008 7.53819,-1.62471 8.44742,2.46684z"/></g><g fill="#ffffff"><path d="M245.91346,183.33042c1.72854,-0.01605 6.24281,-0.89114 6.24281,2.5c0,1.83185 -1.18349,2.3564 -2.5,2.5c-3.58544,0.39109 -7.27591,1.10359 -10.72759,1.50681c-0.34175,1.70603 -0.84898,3.2936 -1.68791,4.16312c-0.68135,0.7062 -3.20817,2.08576 -3.20817,-1.25749c-0.04875,-0.19487 -0.07465,-0.39879 -0.07465,-0.60877c0,-0.19121 0.02147,-0.37742 0.06213,-0.55633c0.43696,-4.70114 -0.48547,-13.91284 1.27562,-15.23134c3.09963,-2.32065 1.24987,-0.44544 4.36231,-0.40313c2.63956,0.03588 5.14339,-0.17464 7.73288,-0.19699c0.68113,-0.00588 6.18626,-0.27868 5.15936,2.5c-1.98967,5.3838 -8.625,0.9108 -12.38727,3.27949c-0.66422,0.41819 -0.21717,1.55404 -0.36587,2.32611c2.28098,-0.39765 4.57085,-0.50714 6.11635,-0.52149z"/><path d="M256.25542,183.33042c1.5163,0.86646 2.12244,2.02156 2.42175,3.12301c0.49595,1.82511 0.14941,3.50293 1.70512,3.47615c3.83429,-0.066 2.19649,-9.52373 6.74217,-6.9262c2.54335,1.45335 3.19684,14.33767 -1.62588,13.13199c-0.89163,-0.22291 -0.93275,-1.82871 -1.81902,-2.07206c-1.98636,-0.54541 -5.1305,2.007 -7.81297,-0.25995c-1.3606,-1.14983 -2.87124,-8.61004 -1.7657,-9.24178z"/><path d="M283.02366,195.0628c-1.5163,-0.86646 -2.12245,-2.02156 -2.42175,-3.12301c-0.49595,-1.82511 -0.14941,-3.50293 -1.70512,-3.47615c-3.83429,0.066 -2.19649,9.52373 -6.74216,6.9262c-2.54335,-1.45335 -3.19684,-14.33767 1.62588,-13.13199c0.89163,0.22291 0.93275,1.82871 1.81902,2.07206c1.98636,0.54541 5.1305,-2.007 7.81297,0.25995c1.3606,1.14983 2.87125,8.61004 1.7657,9.24178z"/><path d="M296.42074,176.71795c1.5319,-1.35939 5.17316,-1.29542 4.6875,1.44698c-0.21444,1.21089 -1.27549,3.08365 -2.61336,5.04307c0.52395,0.01991 1.00651,0.1046 1.39641,0.26783c3.45404,1.44598 3.74802,6.97444 3.38385,10.15281c-0.30635,2.67371 -2.87772,3.05978 -4.6875,1.25c-0.27121,-0.27121 -0.53478,-6.60426 -0.70982,-6.56704c-4.52922,0.96338 -4.0415,5.78796 -5.78258,6.78286c-0.43488,0.73685 -1.23699,1.23117 -2.15454,1.23117c-1.38071,0 -2.5,-1.11929 -2.5,-2.5c0,-0.22264 0.02911,-0.43849 0.08372,-0.64394c-1.27726,-3.63665 -0.51421,-8.98372 -0.57619,-12.10984c-0.03582,-1.80688 -0.98028,-4.81594 2.30301,-4.81594c2.3361,0 2.79454,2.93467 2.89324,5.63399c1.64456,-2.28746 3.38907,-4.38465 4.27627,-5.17194z"/><path d="M310.74373,186.05746c0.06173,0.10973 0.11335,0.2374 0.1564,0.3785c0.09833,0.26435 0.15322,0.54985 0.15599,0.84779c0.10535,1.05375 -0.00525,2.30788 0.00011,2.77165c0.01151,0.99506 1.93908,1.02836 2.23591,1.97818c0.84821,2.71418 -2.36554,4.53039 -4.50849,3.76505c-1.68596,-0.60213 -2.70245,-3.98056 -2.72742,-5.53633c-0.02267,-1.41242 -0.88101,-3.52284 0.34546,-4.22368c0.43488,-0.73685 1.23699,-1.23117 2.15454,-1.23117c0.81357,0 1.53638,0.38863 1.99291,0.99036c0.07451,0.07697 0.14011,0.16278 0.19459,0.25964z"/><path d="M310.95773,180.01885c-0.07202,0.3335 -0.29742,0.69074 -0.61536,1.02745c-0.39364,0.69938 -1.11408,1.19024 -1.95422,1.26549c-1.18736,0.41967 -2.35251,0.23382 -2.43919,-1.32635c-0.18309,-0.34754 -0.28672,-0.74346 -0.28672,-1.16358c0,-1.38071 1.11929,-2.5 2.5,-2.5c0.34591,0 0.67541,0.07025 0.97501,0.19726c1.18084,0.20047 2.12905,1.0709 1.82048,2.49973z"/><path d="M327.87954,195.43644c-1.51629,-0.86646 -2.12244,-2.02156 -2.42175,-3.12301c-0.49594,-1.82511 -0.14941,-3.50293 -1.70512,-3.47615c-3.83429,0.066 -2.19649,9.52373 -6.74216,6.9262c-2.54335,-1.45335 -3.19684,-14.33767 1.62588,-13.13199c0.89163,0.22291 0.93275,1.82871 1.81902,2.07206c1.98636,0.54541 5.1305,-2.007 7.81297,0.25995c1.3606,1.14983 2.87124,8.61004 1.7657,9.24178z"/><path d="M338.29245,175.40517c1.47919,1.97225 -1.96691,5.63876 -4.58256,7.21008c-0.45255,0.45344 -1.07827,0.73399 -1.76952,0.73399c-1.38071,0 -2.5,-1.11929 -2.5,-2.5c0,-0.79341 0.3696,-1.5005 0.94602,-1.95848c1.88612,-2.65998 6.06119,-5.94541 7.90606,-3.48559z"/><path d="M243.95336,160.83825c4.73919,-0.00606 4.02471,-7.96368 4.10486,-11.11252c0.04342,-1.7056 -0.30014,-4.28392 2.26296,-4.28392c3.5485,0 2.06062,7.30843 1.97261,9.69733c-0.26011,7.06074 -4.4094,10.86717 -10.68299,10.69912c-5.84596,-0.1566 -6.43406,-8.03646 -7.15183,-12.66572c-0.26855,-1.732 -1.06457,-5.72088 0.16892,-6.49956c0.39364,-0.73685 1.1197,-1.23117 1.95025,-1.23117c1.2498,0 2.26296,1.11929 2.26296,2.5c0,0.29693 -0.04685,0.58177 -0.13285,0.84599c1.15421,4.80537 -0.92288,12.05835 5.24511,12.05046z"/><path d="M266.54923,166.10138c-1.5163,-0.86646 -2.12245,-2.02156 -2.42175,-3.12302c-0.49595,-1.82511 -0.14941,-3.50292 -1.70512,-3.47614c-3.83429,0.066 -2.19649,9.52373 -6.74216,6.9262c-2.54335,-1.45335 -3.19683,-14.33767 1.62588,-13.13199c0.89163,0.22291 0.93275,1.82871 1.81902,2.07206c1.98636,0.54541 5.1305,-2.007 7.81297,0.25994c1.3606,1.14983 2.87125,8.61004 1.7657,9.24178z"/><path d="M281.27744,166.49447l-0.24157,0.06039h-4.38824l-0.24157,-0.06039l-0.24872,0.01184l-0.81264,-0.16253l-0.14277,-0.06763l-0.15751,-0.01212l-0.48758,-0.16252l-0.15181,-0.09661l-0.17566,-0.03904l-0.32506,-0.16252l-0.11994,-0.10281l-0.14878,-0.05313l-0.46011,-0.30675l-0.03827,-0.00213l-0.42088,-0.49104l-0.0684,-0.07524l-0.12256,-0.0817l-0.03826,-0.00213l-0.42088,-0.49103l-0.43504,-0.47854l0.00263,-0.03823l-0.24068,-0.48137l-0.1014,-0.15211l-0.15001,-0.15001l-0.25376,-0.42293l-0.16598,-0.09484l-0.07791,-0.31163l-0.16527,-0.27545l0.0503,-0.18444l-0.11962,-0.47848v-0.64952l-0.01558,-0.02336l0.01558,-0.0701v-0.06966l0.13932,-0.55728l0.12461,-0.56076l0.03116,-0.06231l0.01741,-0.06966l0.02438,-0.01394l0.41464,-0.82926l0.10281,-0.11995l0.05313,-0.14877l0.32505,-0.48758l0.18425,-0.1675l0.12811,-0.21352l0.32506,-0.32505l0.34461,-0.20677l0.30513,-0.26153l0.5109,-0.25545l0.35808,-0.23872l0.45746,-0.16337l0.439,-0.20795l0.7543,-0.15086l0.5924,-0.1481h0.06096l0.05509,-0.02609l0.81264,-0.16253l0.24873,0.01184l0.24156,-0.06039h4.55077l0.24157,0.06039l0.24872,-0.01184l0.56989,0.11398h0.07691l0.02337,-0.01558l0.0701,0.01558h0.06966l0.55728,0.13932l0.56075,0.12461l0.06231,0.03115l0.06966,0.01741l0.01393,0.02438l0.17916,0.08957l0.15497,0.13284l0.12453,0.00691l0.32251,0.37626l0.37626,0.32251l0.00691,0.12453l0.13284,0.15497l0.08958,0.17916l0.02438,0.01393l0.01741,0.06966l0.03116,0.06231l0.12461,0.56076l0.13932,0.55728v0.06966l0.01558,0.0701l-0.01558,0.02336v0.50428l0.08788,0.35154v0.30776l0.07465,0.29857v7.80132l-0.04365,0.17457l0.01852,0.17899l-0.16253,1.13769l-0.08573,0.21044l-0.01743,0.22657l-0.32506,0.97517l-0.09661,0.15181l-0.03903,0.17566l-0.32506,0.65011l-0.0638,0.07442l-0.02854,0.09378l-0.48759,0.81264l-0.0431,0.0431l-0.02051,0.05741l-0.13934,0.20901l-0.05665,0.16996l-0.09661,0.15181l-0.03904,0.17566l-0.32506,0.65011l-0.10281,0.11995l-0.05313,0.14878l-0.65011,0.97516l-0.18425,0.1675l-0.12811,0.21352l-1.13769,1.13769l-0.34461,0.20676l-0.30512,0.26154l-0.97517,0.48758l-0.17566,0.03903l-0.15181,0.09661l-0.80661,0.26887l-0.81626,0.40813l-0.32596,0.07244l-0.30178,0.14294l-0.81264,0.16252l-0.07095,-0.00337l-0.06578,0.0268l-1.01002,0.14429l-0.52499,0.13125h-0.30777l-0.29858,0.07464h-1.13769l-0.09758,-0.02439l-0.07576,0.03788l-0.53034,-0.1894l-0.54632,-0.13658l-0.04203,-0.07354l-0.09472,-0.03383l-0.48758,-0.32505l-0.28473,-0.31321l-0.32852,-0.26692l-0.48758,-0.65011l-0.08818,-0.20943l-0.14788,-0.17253l-0.25211,-0.50421l-0.02438,-0.01394l-0.01741,-0.06966l-0.03116,-0.06231l-0.12461,-0.56076l-0.13932,-0.55728v-0.06966l-0.01558,-0.0701l0.01558,-0.02336v-1.1371l0.04951,-0.19802l-0.04951,-0.11448l0.19231,-0.45673l0.12019,-0.48077l0.10829,-0.06188l0.07921,-0.18812l0.38971,-0.51962l0.00155,-0.02803l0.05452,-0.04673l0.0418,-0.05573l0.44582,-0.36223l0.43614,-0.37384l0.0623,-0.03115l0.05573,-0.04528l0.02786,0.00349l0.30259,-0.1513l0.46977,-0.35233l0.20943,-0.08818l0.17254,-0.14789l0.32505,-0.16253l1.25779,-0.27951l2.09631,1.39755l-0.13975,2.51557l-0.42721,0.36618l0.02151,-0.00307l0.4163,-0.08326l0.67572,-0.33786l0.17566,-0.03903l0.15181,-0.09661l0.80661,-0.26887l0.45339,-0.2267l0.67577,-0.67578l0.42646,-0.63969l0.176,-0.35198l0.10634,-0.31903l0.17928,-0.28172l0.11231,-0.31446l0.29206,-0.43809l0.40758,-0.67929l0.20266,-0.40532l0.19759,-0.59275l0.10552,-0.73865v-0.78704zM277.70782,159.89123l-0.51156,0.10231l-0.5924,0.1481h-0.06096l-0.05509,0.02609l-0.32767,0.06554l-0.07608,0.05072l-0.14877,0.05313l-0.11994,0.10281l-0.18936,0.09468l0.01376,0.02063l0.05313,0.14878l0.10281,0.11995l0.03251,0.06501l0.36249,0.42291l0.0684,0.07524l0.02053,0.01368l0.02693,0.01347l0.17138,0.05712l0.41727,0.08346h3.89314l0.56989,-0.11398l0.10315,0.00491v-1.47141l-0.02079,-0.08315z"/><path d="M301.57814,157.2287c0.6739,3.03252 -3.63413,5.34101 -4.84043,1.77594c-0.17197,-0.50822 -0.91949,0.56444 -1.41977,0.7583c-0.23977,0.09291 -0.7123,0.28954 -1.26624,0.48729c0.02724,1.35492 -0.03877,2.65148 -0.13682,3.61595c0.01614,0.11475 0.02447,0.232 0.02447,0.3512c0,0.40532 -0.09645,0.7881 -0.26765,1.12665c-0.41201,0.81474 -1.25695,1.37335 -2.23235,1.37335c-1.38071,0 -2.5,-1.11929 -2.5,-2.5c0,-0.28132 0.04647,-0.55177 0.13214,-0.80413c-1.32382,-4.1338 -0.1175,-10.1473 2.20533,-10.1473c0.83085,0 1.42981,0.58366 1.85389,1.49591c3.31392,-1.59008 7.53819,-1.62471 8.44742,2.46684z"/><path d="M308.82805,166.2865h-1.62527l-0.38988,-0.09747l-0.40069,-0.03083l-0.48759,-0.16252l-0.1518,-0.09661l-0.17566,-0.03903l-0.32506,-0.16253l-0.11994,-0.10281l-0.14878,-0.05313l-0.48758,-0.32506l-0.1675,-0.18425l-0.21352,-0.12811l-0.20971,-0.20971l-0.02754,-0.00551l-0.03855,-0.06058l-0.04925,-0.04926l-0.29555,-0.49257l-0.3084,-0.48462l-0.02203,-0.06608l-0.03694,-0.06158l0.00739,-0.02709l-0.05476,-0.16428l-0.08308,-0.16615l-0.05973,-0.26877l-0.12956,-0.24293l-0.13924,-0.55696l-0.13217,-0.39649l-0.03082,-0.4007l-0.09747,-0.38987v-2.9255l0.11962,-0.47848l-0.0503,-0.18443l0.16527,-0.27545l0.07791,-0.31164l0.16598,-0.09484l0.25376,-0.42292l0.32506,-0.32505l0.21351,-0.12811l0.1675,-0.18425l0.97517,-0.65011l0.40291,-0.1439l0.3775,-0.20134l1.20707,-0.30177l0.3965,-0.13216l0.09774,-0.00752l0.08649,-0.04613l0.65011,-0.16253h0.30777l0.29857,-0.07464h0.60573l0.77107,-0.12851l0.20828,0.01666l0.20271,-0.05068h2.9255l0.24157,0.06039l0.24872,-0.01184l0.74459,0.14891l1.069,0.15272l0.12154,0.04952h0.13125l0.65011,0.16253l0.24293,0.12956l0.26877,0.05973l0.4912,0.2456l0.31903,0.10634l0.72469,0.46116l0.1647,0.03294l0.07686,0.12078l0.12078,0.07686l0.03294,0.1647l0.46116,0.72469l0.10635,0.31903l0.08307,0.16614l0.05972,0.26877l0.12956,0.24293l0.16253,0.65011v0.30777l0.07465,0.29857v1.30022l-0.07465,0.29857v0.30776l-0.16253,0.65011l-0.12956,0.24293l-0.05972,0.26877l-0.20232,0.40465l-0.09597,0.38388l-0.20133,0.3775l-0.14389,0.40291l-0.32506,0.48758l-0.18425,0.1675l-0.12811,0.21352l-0.48758,0.48758l-0.21352,0.12811l-0.1675,0.18425l-0.97516,0.65011l-0.31447,0.11231l-0.28171,0.17927l-0.97517,0.32505l-0.15751,0.01212l-0.14276,0.06762l-0.81264,0.16253l-0.24872,-0.01184l-0.24157,0.06039h-3.25055l-0.82814,-0.20704c-0.15287,0.02921 -0.31069,0.04451 -0.47208,0.04451zM314.05845,161.19561l0.49062,-0.32708l0.09378,-0.09378l0.04875,-0.19503l0.12957,-0.24293l0.05972,-0.26877l0.20232,-0.40465l0.02133,-0.0853v-0.58452l-0.25661,-0.06415l-1.01002,-0.14429l-0.06579,-0.0268l-0.07096,0.00338l-0.56989,-0.11398h-2.47104l-0.77107,0.12851l-0.20828,-0.01666l-0.20271,0.05068h-0.50487l-0.25839,0.0646l-0.3965,0.13217l-0.09774,0.00752l-0.08649,0.04613l-0.70678,0.1767v1.21796l0.03424,0.10271l0.00752,0.09774l0.04613,0.08649l0.09596,0.38387l0.0398,0.0796l0.01795,0.08078h1.15906c0.37202,0 0.72507,0.08126 1.04235,0.227l0.25787,-0.06447h3.003l0.41727,-0.08346z"/><path d="M323.86682,153.99536c1.5163,0.86646 2.12244,2.02156 2.42175,3.12301c0.49595,1.82511 0.14941,3.50293 1.70512,3.47615c3.83428,-0.066 2.19649,-9.52373 6.74216,-6.9262c2.54335,1.45335 3.19684,14.33767 -1.62588,13.13199c-0.89163,-0.22291 -0.93275,-1.82871 -1.81902,-2.07206c-1.98636,-0.54541 -5.1305,2.007 -7.81297,-0.25995c-1.3606,-1.14983 -2.87124,-8.61004 -1.7657,-9.24178z"/><path d="M351.22602,166.10138c-1.5163,-0.86646 -2.12245,-2.02156 -2.42175,-3.12302c-0.49595,-1.82511 -0.14941,-3.50292 -1.70512,-3.47614c-3.83429,0.066 -2.19649,9.52373 -6.74216,6.9262c-2.54335,-1.45335 -3.19684,-14.33767 1.62588,-13.13199c0.89163,0.22291 0.93275,1.82871 1.81902,2.07206c1.98636,0.54541 5.1305,-2.007 7.81297,0.25994c1.3606,1.14983 2.87124,8.61004 1.7657,9.24178z"/><path d="M368.94878,164.42404l-0.00212,0.04252l-0.05692,0.05444c-0.24707,0.388 -0.58085,0.70245 -0.96981,0.90818l-0.13072,0.07292l-0.01393,0.02721l-0.06966,0.01943l-0.0623,0.03476l-0.56076,0.13904l-0.55728,0.15545h-0.06966l-0.07009,0.01738l-0.02337,-0.01738h-0.34175l-1.00164,0.27939h-0.30776l-0.29857,0.08329h-0.34235l-0.35153,0.09806h-0.30776l-0.29858,0.08328h-3.24996l-0.02337,0.01738l-0.07009,-0.01738h-0.06966l-0.55728,-0.15544l-0.56075,-0.13904l-0.0623,-0.03476l-0.06966,-0.01943l-0.01394,-0.0272l-0.50421,-0.28129l-0.30513,-0.29181l-0.34461,-0.2307l-1.3474,-1.50338l-0.02754,-0.00615l-0.03855,-0.06759l-0.04926,-0.05496l-0.29555,-0.54959l-0.3084,-0.54072l-0.02203,-0.07373l-0.03695,-0.0687l0.00739,-0.03023l-0.05476,-0.1833l-0.01012,-0.02258l-0.02439,-0.01555l-0.01741,-0.07773l-0.03115,-0.06951l-0.12461,-0.62566l-0.13932,-0.62179v-0.07772l-0.01557,-0.07821l0.01557,-0.02606v-0.54271l-0.01557,-0.02607l0.01557,-0.0782v-0.07772l0.13932,-0.62179l0.12461,-0.62566l0.03115,-0.06952l0.01741,-0.07772l0.02439,-0.01555l0.2521,-0.56258l0.26153,-0.34044l0.20677,-0.3845l0.81264,-0.9067l0.21352,-0.14294l0.1675,-0.20558l0.48758,-0.36268l0.40291,-0.16056l0.3775,-0.22464l0.38387,-0.10708l0.40465,-0.22575l0.26876,-0.06664l0.24293,-0.14457l1.30022,-0.36268h0.30776l0.29858,-0.08329h3.51351v-0.37525l-0.15512,-2.42307l-0.1613,-2.15965l0.01709,-0.11682l-0.02573,-0.11483v-6.34693l0.3125,-1.3947l2.1875,-1.3947l2.1875,1.3947l0.3125,1.3947v6.23091l0.15389,2.06047l-0.00245,0.01676l0.00473,0.01614l0.16253,2.53878l-0.01574,0.10012l0.02209,0.09861v3.31216l0.01256,0.008l0.07791,0.34771l0.16527,0.30733l-0.0503,0.20578l0.11962,0.53387v2.53877l-0.09747,0.43501l-0.03083,0.44707l-0.19676,0.65862v0.09137l-0.3125,1.3947l-0.72688,0.46344c-0.00407,0.00714 -0.00817,0.01425 -0.01229,0.02134zM361.79471,159.71238l-0.73541,0.20513l-0.40465,0.22575l-0.26877,0.06664l-0.24293,0.14456l-0.1371,0.03825l0.40377,0.45051h2.39484l0.35154,-0.09806h0.30777l0.29857,-0.08328h0.34235l0.89578,-0.24987v-0.69962z"/><path d="M402.36827,164.42404l-0.00212,0.04252l-0.05692,0.05444c-0.24707,0.388 -0.58085,0.70245 -0.96981,0.90818l-0.13072,0.07292l-0.01393,0.02721l-0.06966,0.01943l-0.0623,0.03476l-0.56075,0.13904l-0.55728,0.15545h-0.06966l-0.07009,0.01738l-0.02337,-0.01738h-0.34175l-1.00164,0.27939h-0.30776l-0.29857,0.08329h-0.34235l-0.35153,0.09806h-0.30777l-0.29858,0.08328h-3.24996l-0.02337,0.01738l-0.07009,-0.01738h-0.06966l-0.55728,-0.15544l-0.56075,-0.13904l-0.06231,-0.03476l-0.06966,-0.01943l-0.01394,-0.0272l-0.50421,-0.28129l-0.30513,-0.29181l-0.34461,-0.2307l-1.34741,-1.50338l-0.02754,-0.00615l-0.03855,-0.06759l-0.04926,-0.05496l-0.29555,-0.54959l-0.30839,-0.54072l-0.02203,-0.07373l-0.03695,-0.0687l0.00739,-0.03023l-0.05476,-0.1833l-0.01012,-0.02258l-0.02438,-0.01555l-0.01742,-0.07773l-0.03115,-0.06951l-0.12462,-0.62566l-0.13932,-0.62179v-0.07772l-0.01558,-0.07821l0.01558,-0.02606v-0.54271l-0.01558,-0.02607l0.01558,-0.0782v-0.07772l0.13932,-0.62179l0.12462,-0.62566l0.03115,-0.06952l0.01742,-0.07772l0.02438,-0.01555l0.2521,-0.56258l0.26154,-0.34044l0.20676,-0.3845l0.81264,-0.9067l0.21352,-0.14294l0.1675,-0.20558l0.48758,-0.36268l0.40291,-0.16056l0.3775,-0.22464l0.38387,-0.10708l0.40465,-0.22575l0.26876,-0.06664l0.24293,-0.14457l1.30022,-0.36268h0.30777l0.29857,-0.08329h3.51351v-0.37525l-0.15512,-2.42307l-0.1613,-2.15965l0.0171,-0.11682l-0.02573,-0.11483v-6.34693l0.3125,-1.3947l2.1875,-1.3947l2.1875,1.3947l0.3125,1.3947v6.23091l0.15389,2.06047l-0.00245,0.01676l0.00473,0.01614l0.16253,2.53878l-0.01574,0.10012l0.02209,0.09861v3.31216l0.01256,0.008l0.07791,0.34771l0.16527,0.30733l-0.0503,0.20578l0.11962,0.53387v2.53877l-0.09747,0.43501l-0.03082,0.44707l-0.19676,0.65862v0.09137l-0.3125,1.3947l-0.72688,0.46344c-0.00407,0.00714 -0.00817,0.01425 -0.01229,0.02134zM395.2142,159.71238l-0.73541,0.20513l-0.40465,0.22575l-0.26877,0.06664l-0.24293,0.14456l-0.1371,0.03825l0.40377,0.45051h2.39484l0.35153,-0.09806h0.30777l0.29858,-0.08328h0.34234l0.89578,-0.24987v-0.69962z"/><path d="M238.62156,212.21288c0.00132,0.14808 2.01591,0.33986 2.10554,0.34137c1.31722,0.02229 13.39994,-1.82174 10.34287,4.04752c-1.30211,2.4999 -14.95106,2.25205 -16.6572,0.46096c-2.24246,-2.35414 -1.27544,-5.14949 -1.23611,-8.27222c0.03937,-3.12559 -2.32665,-7.81867 0.38734,-9.36951c0.4876,-0.82618 1.38695,-1.38043 2.41574,-1.38043c1.54809,0 2.80308,1.25498 2.80308,2.80308c0,0.10118 -0.00536,0.2011 -0.01582,0.29951c1.20088,3.11191 -0.18009,7.20516 -0.14545,11.06971z"/><path d="M270.29887,204.66451c1.5163,0.86646 2.12244,2.02156 2.42175,3.12301c0.49595,1.82511 0.14941,3.50293 1.70512,3.47615c3.83429,-0.066 2.19649,-9.52373 6.74217,-6.9262c2.54335,1.45335 3.19684,14.33767 -1.62588,13.13199c-0.89163,-0.22291 -0.93275,-1.82871 -1.81902,-2.07206c-1.98636,-0.54541 -5.1305,2.007 -7.81297,-0.25995c-1.3606,-1.14983 -2.87124,-8.61004 -1.7657,-9.24178z"/><path d="M297.87934,216.77053c-1.5163,-0.86646 -2.12244,-2.02156 -2.42175,-3.12302c-0.49595,-1.82511 -0.14941,-3.50293 -1.70512,-3.47615c-3.83429,0.066 -2.19649,9.52373 -6.74216,6.9262c-2.54335,-1.45335 -3.19684,-14.33767 1.62588,-13.13199c0.89163,0.22291 0.93275,1.82871 1.81902,2.07206c1.98636,0.54541 5.1305,-2.007 7.81297,0.25994c1.3606,1.14983 2.87124,8.61004 1.7657,9.24178z"/><path d="M386.279,159.19101c-0.4681,0.81916 -6.79663,0.31071 -7.97436,0.5864c-0.39011,0.09132 -1.25373,-0.00507 -1.14057,0.37929c0.43811,1.48804 7.83863,0.02544 8.67978,2.54888c0.65684,1.97053 -1.30352,3.51122 -3.02414,3.51122c-3.373,0 -9.89163,-0.588 -10.91429,-4.67865c-1.62831,-6.51323 9.7268,-9.29243 14.35474,-6.68917c0.09686,0.05448 0.18268,0.12008 0.25964,0.19459c0.50467,0.48857 0.62883,1.36023 0.99036,1.99291z" data-paper-data="{&quot;index&quot;:null}"/><path d="M315.21372,214.48919c-0.71326,1.24821 -1.9728,1.99354 -3.45848,2.30967c-5.0023,1.06444 -12.56822,-2.73687 -10.47719,-8.59177c1.47697,-4.13551 14.47967,-7.0137 14.47967,-1.87805c0,4.17031 -7.65506,1.44464 -9.79217,4.02759c-0.48761,0.58934 1.94777,1.02434 2.10595,1.05001c1.43345,0.23262 5.59623,0.37709 5.91105,0.92801z"/><path d="M316.79854,202.74881c0.18157,-1.8337 -0.60764,-5.25048 2.57561,-5.25048c1.67912,0 2.43451,1.18349 2.5,2.5c0.08396,1.68783 -1.69325,5.21294 -0.00941,5.06974c4.9802,-0.42355 6.51538,1.28513 6.9019,6.72391c0.11226,1.57972 0.85843,2.1951 0.15017,3.61161c-1.2152,2.4304 -3.57343,2.58813 -4.84224,0.29647c-0.66537,-1.20176 0.6913,-5.23852 -0.65759,-5.86772c-1.46591,-0.68378 -1.86636,1.68704 -1.9738,3.67516c0.18822,0.35126 0.29496,0.75271 0.29496,1.1791c0,0.30256 -0.05375,0.59256 -0.15221,0.86098c-0.05157,0.14058 -0.11541,0.27525 -0.19022,0.4027c-0.43417,0.7397 -1.23788,1.23632 -2.15757,1.23632c-1.38071,0 -2.5,-1.11929 -2.5,-2.5c0,-0.22962 0.03096,-0.45203 0.08893,-0.66325c-1.11149,-3.35468 -0.34009,-8.12812 -0.02854,-11.27453z"/><path d="M344.12122,209.86015c-0.4681,0.81916 -6.79663,0.31071 -7.97436,0.5864c-0.39011,0.09132 -1.25373,-0.00507 -1.14057,0.37928c0.43811,1.48805 7.83863,0.02544 8.67978,2.54889c0.65684,1.97053 -1.30352,3.51122 -3.02413,3.51122c-3.373,0 -9.89163,-0.588 -10.91429,-4.67865c-1.6283,-6.51322 9.7268,-9.29243 14.35474,-6.68917c0.09686,0.05448 0.18268,0.12008 0.25964,0.19459c0.50467,0.48857 0.62883,1.36023 0.99036,1.99291z" data-paper-data="{&quot;index&quot;:null}"/><path d="M253.08943,210.97431c0.46809,-0.81917 6.79663,-1.58533 7.97436,-1.86102c0.39011,-0.09132 0.69609,-1.18989 0.58293,-1.57424c-0.43812,-1.48804 -7.28099,2.44413 -8.12214,-0.07932c-0.65684,-1.97052 1.30353,-3.51121 3.02414,-3.51121c3.37299,0 8.85601,-1.56291 10.27698,6.90922c1.6283,6.51322 -9.08949,7.06186 -13.71743,4.4586c-0.09686,-0.05448 -0.18268,-0.12008 -0.25964,-0.19459c-0.50467,-0.48857 -0.62883,-1.36023 -0.99036,-1.99291z" data-paper-data="{&quot;index&quot;:null}"/><path d="M359.25267,207.51331c0.6739,3.03252 -3.63413,5.34101 -4.84043,1.77594c-0.17197,-0.50822 -0.91949,0.56444 -1.41977,0.7583c-0.23977,0.09291 -0.7123,0.28954 -1.26624,0.48729c0.02724,1.35492 -0.03877,2.65148 -0.13682,3.61595c0.01614,0.11475 0.02447,0.232 0.02447,0.3512c0,0.40532 -0.09645,0.7881 -0.26765,1.12665c-0.41201,0.81474 -1.25695,1.37335 -2.23235,1.37335c-1.38071,0 -2.5,-1.11929 -2.5,-2.5c0,-0.28132 0.04647,-0.55177 0.13214,-0.80413c-1.32382,-4.1338 -0.1175,-10.1473 2.20533,-10.1473c0.83085,0 1.42981,0.58366 1.85389,1.49591c3.31392,-1.59008 7.53819,-1.62471 8.44742,2.46684z"/></g></g></g></g></svg>