<svg version="1.1" xmlns="http://www.w3.org/2000/svg" xmlns:xlink="http://www.w3.org/1999/xlink" width="100.33314" height="40.09206" viewBox="0,0,100.33314,40.09206"><g transform="translate(-269.83343,-159.95397)"><g data-paper-data="{&quot;isPaintingLayer&quot;:true}" fill-rule="nonzero" stroke="none" stroke-width="0.5" stroke-linecap="butt" stroke-linejoin="miter" stroke-miterlimit="10" stroke-dasharray="" stroke-dashoffset="0" style="mix-blend-mode: normal"><path d="M313.01952,160.89564c10.92551,0 47.07673,-1.45415 49.02075,-0.74841c11.03991,-1.16786 7.57821,14.95401 7.72124,17.21365c-0.39319,4.53601 -0.01253,9.23439 -0.29794,13.77565c-0.11461,1.82351 0.66124,4.25404 -1.10281,5.47192c-2.34796,1.62104 -7.84193,1.26555 -10.75219,1.61203c-9.79263,1.43865 -19.85257,1.51366 -29.8416,1.51745l-1.44727,0.12586c-7.04015,0 -14.18792,0.60704 -21.22952,-0.39473c0,0 -0.04916,-0.00709 -0.12698,-0.0269c-3.62279,-0.1986 -10.70048,-0.14988 -10.71873,-0.15355c-0.01825,-0.00367 -16.29922,1.34665 -23.52463,-1.33203c-0.49999,-0.01613 -0.07574,-15.11892 -0.2041,-16.18173c-0.80212,-6.64142 -1.02136,-19.93782 0.02679,-20.678c1.42709,-1.00778 27.5296,-0.08251 41.8798,-0.08902c0.24381,-0.00011 0.36119,-0.11221 0.59717,-0.11221z" fill="#000000"/><path d="M272.72699,178.8598c-0.54978,-3.82217 -1.14763,-11.07536 -0.12682,-14.76363c2.16437,-2.24212 4.14379,-1.41315 7.23655,-1.41315c6.95705,0 13.85269,-0.06989 20.81198,-0.06989c10.51105,0 21.29449,-0.08423 31.81112,-0.08423c6.28125,0 12.11813,-0.44816 18.39938,-0.44816c2.88001,0 12.73906,-0.09911 12.94745,0.02895c6.19502,-1.5351 3.87205,20.51103 3.34022,28.63167c0.12971,2.04453 0.04958,3.88837 -2.2406,4.59922c-2.53895,0.78805 -6.18843,0.2193 -8.86178,0.2193c-5.71881,0 -11.63771,1.3406 -17.30924,1.79977c-9.92688,0.08125 -18.12844,0.2172 -29.6526,-0.24765c-11.52417,-0.46485 -21.92633,2.10574 -31.89246,-0.61458c-1.30296,-0.46351 -4.56172,-0.18018 -4.38005,-1.12212c0,0 0.43137,-12.93858 -0.08314,-16.51551z" fill="#222222"/></g></g></svg>