<svg version="1.1" xmlns="http://www.w3.org/2000/svg" xmlns:xlink="http://www.w3.org/1999/xlink" width="119.34221" height="91.22825" viewBox="0,0,119.34221,91.22825"><g transform="translate(-260.3289,-134.38587)"><g data-paper-data="{&quot;isPaintingLayer&quot;:true}" fill="#7af5f5" fill-rule="nonzero" stroke="none" stroke-width="0.5" stroke-linecap="butt" stroke-linejoin="miter" stroke-miterlimit="10" stroke-dasharray="" stroke-dashoffset="0" style="mix-blend-mode: normal"><path d="M327.55265,166.6966c0.08148,1.98965 -0.19516,4.57261 0.54066,6.29557c0.40765,0.95454 3.67267,-0.01876 4.49901,1.27522c0.21952,1.92994 0.37185,3.8841 0.66212,5.81942c0.03712,0.2475 0.0702,1.51212 0.34425,1.63339c0.79741,0.35285 2.76229,0.10816 3.67291,0.10704c0.1474,0 0.40426,0.0063 0.60272,0.04112c-0.26403,-0.5987 -0.56063,-2.08121 -0.61475,-2.27507c-0.32596,-1.16765 -1.78587,-4.60032 -0.59529,-5.62394c0.56499,-0.48576 2.53404,-0.22836 3.24414,-0.22836c0.34529,0 0.97641,0.11713 1.30616,-0.03415c0.22272,-0.10218 0.07958,-1.45874 0.06943,-1.66984c-0.06772,-1.40839 0.24422,-3.49392 -0.2355,-4.82819c-0.12719,-0.35375 -1.81617,-0.14419 -2.11131,-0.14452c-3.85572,0.38557 -7.59424,-0.00641 -11.38454,-0.36767zM327.08137,165.65567l0.10285,0.00153c3.89555,0.40837 7.74476,0.80415 11.70315,0.40831c0.95505,-0.00097 2.45583,-0.31 3.04514,0.67582c0.65634,1.09795 0.82792,7.10167 -0.16607,7.79942c-0.47209,0.33139 -1.31781,0.20022 -1.85803,0.20022c-0.49021,0 -2.27141,-0.23587 -2.61546,0.00602c-0.2768,0.19462 0.22004,1.97241 0.28799,2.24418c0.34866,1.39435 0.72918,2.76587 1.05621,4.16645c0.11046,0.47306 0.62761,1.00598 0.36087,1.41199c-0.20684,0.31483 -1.36705,0.25761 -1.72644,0.25761c-0.99502,-0.00112 -3.33738,0.27034 -4.17896,-0.24454c-1.51303,-0.92569 -1.32707,-6.39818 -1.45466,-8.01655c-0.20511,-0.72671 -3.67775,0.09806 -4.4076,-1.06862c-1.05229,-1.68214 -0.54182,-5.28902 -0.70698,-7.25113c-0.00398,-0.02851 -0.00612,-0.05903 -0.00612,-0.09167c0,-0.16135 0.05206,-0.27063 0.12259,-0.34465c0.06732,-0.07694 0.17145,-0.13869 0.33214,-0.1533c0.03919,-0.00357 0.07558,-0.00376 0.10936,-0.0011z"/><path d="M344.74231,167.94383c0.30074,3.5066 0.46828,7.05225 0.47099,10.57465c0,0.91913 -0.33312,2.88675 -0.01025,3.65107c0.2409,0.57028 1.23501,-0.10794 1.85409,-0.10794c0.65808,0 1.61876,0.66364 1.97127,0.10794c0.24392,-0.38451 -0.24409,-2.60234 -0.24463,-3.1823c0.08461,-1.29769 2.56601,-2.35625 3.53445,-1.06488c0.29412,0.39219 0.34972,4.29747 0.55005,4.35879c1.13609,0.34774 2.65932,0.19061 3.85719,0.19061c0.39801,0.17189 0.18315,-2.15265 0.20367,-2.62824c0.12359,-2.86512 -0.26468,-5.90785 -0.52535,-8.7751c-0.07098,-0.63853 0.10615,-1.93054 -0.16016,-2.47946c-0.1134,-0.23374 -4.07811,-0.34422 -4.34115,-0.24521c-0.45344,0.17067 0.16663,0.95941 0.16654,1.44391c-0.00016,0.84588 0.06514,1.66885 0.02754,2.51732c-0.79882,0.94373 -3.11692,1.52952 -3.80603,0.06667c-0.63013,-1.33765 0.25693,-3.14068 -0.13524,-4.43058c-0.04254,-0.13993 -3.08745,0.00275 -3.38342,0.00275zM344.52293,166.94383h0.24896c0.97856,0 3.60376,-0.44997 4.23406,0.47152c0.27981,0.40908 -0.38097,7.3484 2.15273,4.54269c-0.07601,-0.8662 -0.58,-3.74098 0.07688,-4.35941c0.69543,-0.65472 5.34493,-0.27661 5.85457,0.45794c0.41687,0.60085 0.22694,2.17612 0.3086,2.91137c0.28969,3.1866 0.52866,6.41214 0.5299,9.6014c0.00049,1.26525 0.36871,2.71428 -1.20316,2.90243c-1.1318,0 -3.51961,0.31247 -4.46344,-0.39534c-0.9109,-0.68311 -0.43835,-3.56531 -0.73906,-4.54781c-0.00383,-0.0125 -1.85987,-0.36984 -1.73919,0.45862c-0.00082,0.80809 0.58365,3.20455 -0.01024,3.84922c-0.46633,0.50621 -4.83379,0.50051 -5.31562,0c-0.65473,-0.6801 -0.24462,-3.41695 -0.24462,-4.31799c0.00306,-3.71314 -0.18886,-7.45573 -0.52531,-11.14658c0,0 -0.04526,-0.49795 0.45268,-0.54322c0.18037,-0.01639 0.30133,0.03848 0.38227,0.11514z"/><path d="M360.03065,166.23054c-0.11829,-0.06553 -0.23081,-0.1902 -0.23081,-0.4274c0,-0.5 0.5,-0.5 0.5,-0.5c0.0138,0.00001 0.0276,0.00003 0.04139,0.00006c0.06897,-0.01431 0.13112,-0.01215 0.18645,0.00053c2.2252,0.00921 4.45554,0.1166 6.68649,0.1166c0.87593,0 2.10402,-0.30563 2.62231,0.64265c0.21951,0.40161 0.02433,1.51818 -0.01511,1.95573c-0.08077,0.80766 -0.02523,3.19834 -0.76224,3.65919c-0.90532,0.5661 -2.60548,-0.20614 -3.60515,0.04362c-0.39814,0.09947 -0.30717,1.38676 -0.08002,1.39857c0.72097,0.03748 1.43405,-0.15392 2.18295,-0.07979c1.14779,0.20896 2.1466,3.13284 1.36606,4.28507c-0.61703,0.91084 -2.38311,0.22195 -3.20703,0.3032c-0.10019,0.00988 0.05994,1.20571 0.07431,1.22094c0.10095,0.10702 2.19605,0.04843 2.53725,0.04791c1.92067,0 3.56645,3.69172 1.52357,4.60101c-1.78958,0.79654 -5.2097,-0.42861 -7.23833,-0.2032c-0.39817,0.00055 -1.6383,0.1431 -1.92674,-0.11256c-0.48672,-0.43141 -0.44549,-2.16493 -0.47547,-2.76646c-0.13788,-2.76705 0.17528,-5.61906 0.17528,-8.40189c0,-1.92626 0.03285,-3.89444 -0.35515,-5.78378zM361.0641,166.30647c0.34497,1.87129 0.32171,3.80727 0.32171,5.70785c0,2.62256 -0.17602,5.23892 -0.17579,7.85187c0.00004,0.40392 -0.11194,2.30324 0.10997,2.54313c0.28125,0.30405 0.82326,-0.1132 1.23745,-0.11257c2.31555,-0.25728 4.68087,0.55797 6.94191,0.26557c0.27126,-0.03508 0.31471,-2.66491 -1.17184,-2.66491c-1.43844,-0.00198 -4.55489,-0.00538 -3.64655,-2.38952c0.44301,-1.16279 3.35452,-0.52492 3.40266,-0.7261c0.11743,-0.49072 -0.09692,-2.79862 -0.62621,-2.74646c-0.64464,-0.06518 -1.82929,0.2383 -2.38754,0.0374c-1.28358,-0.46193 -1.13556,-2.79261 0.03717,-3.2891c0.98616,-0.41751 2.43082,0.25587 3.42637,0.04361c0.01293,-0.00276 0.26609,-2.63958 0.29249,-2.90356c0.03489,-0.38033 0.1801,-1.06045 0.10208,-1.44285c-0.037,-0.18137 -1.54657,-0.0605 -1.7138,-0.0605c-2.05114,0 -4.10334,-0.09469 -6.15008,-0.11387z"/><path d="M313.14198,167.50249c-0.0067,0.00032 -0.01036,0.00032 -0.01036,0.00032h-0.59661v0c-0.27614,0 -0.80457,0.23301 -0.80457,-0.04313c0,-0.27614 3.42184,0.44232 8.56853,-3.26503c1.35036,-1.2413 2.87391,-2.62507 3.8232,-4.22234c0.61892,-1.0414 1.3801,-3.17183 -0.34557,-1.63013c0,0 -0.3737,0.33218 -0.70588,-0.04152c-0.33218,-0.37371 0.04152,-0.70589 0.04152,-0.70589c1.70173,-1.50599 3.33033,-0.54655 2.45903,1.6658c-0.90896,2.30799 -2.67932,3.82311 -4.45601,5.44746c-2.52098,1.77042 -4.88781,2.77419 -7.97327,2.79448z"/><path d="M317.74687,158.84673c0.79458,1.23597 1.49928,2.87227 -0.8772,4.04888c-1.18893,-0.2755 -2.4865,-2.52876 -3.24917,-4.08818c-0.08363,0.30744 -0.16468,0.61804 -0.2432,0.93211c-0.11614,0.54226 -0.17476,2.30149 -0.65855,2.60219c-0.1808,0.11237 -0.4536,0.1152 -0.759,0.05745c0.03261,0.0484 0.06571,0.09858 0.09894,0.15017c0.00594,0.00606 0.08084,0.08385 0.12492,0.20013c0.58329,0.96551 1.0549,2.21875 -0.67928,1.61283c-0.90116,-0.31486 -1.39105,-2.10211 -2.07038,-2.73265c0,0 -5.41183,-4.56901 -5.07735,-4.94065c0.33448,-0.37165 5.26406,4.65627 7.82277,4.81066c0.66504,0.04013 0.08417,-1.33474 0.22382,-1.98619c1.20089,-4.80357 2.97925,-8.82057 5.52906,-13.07107l0.10096,-0.15246c0,0 0.27735,-0.41603 0.69338,-0.13868c0.41602,0.27735 0.13867,0.69338 0.13867,0.69338l-0.07551,0.11226c-1.46996,2.44947 -2.6783,4.81735 -3.66336,7.31034c1.00006,0.80389 2.2173,4.0299 2.62049,4.57948z"/><path d="M324.43616,164.08885c0.40687,0.29062 0.11625,0.69749 0.11625,0.69749l-0.30739,0.43034c-1.14635,1.6049 -2.63885,2.11325 -4.29195,3.14489c-3.51041,1.75785 -9.31871,2.89735 -13.15481,1.62291c-1.75203,-0.38726 -5.05854,-1.37776 -3.06446,-3.67341c0.28567,-0.32887 2.8306,-1.48815 2.83663,-1.57101c0.01765,-0.24235 -0.60038,-1.70211 -0.7457,-1.71548c-2.19927,0.31345 -4.07047,1.38995 -6.06346,2.29519c-0.27137,0.12326 -1.56311,1.01296 -1.77979,1.02083c-1.91839,0.06968 -0.91628,-3.57143 -0.63512,-4.60331c0.20078,-1.00646 0.45714,-1.8745 0.81768,-2.82719c0.11473,-0.30318 0.40713,-0.87333 0.65774,-1.26727c-0.37645,0.11973 -0.89055,0.18609 -1.00778,0.21052c-1.85041,0.38571 -3.55837,0.92618 -5.13301,1.99944c-1.96184,0.05749 -1.18999,-1.73399 -0.86873,-3.21341c0.61239,-2.82009 1.992,-6.69334 4.05545,-8.77504c0.38799,-0.44628 0.79692,-0.769 1.22103,-0.99043c-0.19862,-0.3982 -0.44867,-0.72664 -0.65488,-1.13906c-0.25661,-0.31674 -1.12786,-1.10228 -1.1777,-1.45261c-0.13664,-0.96046 1.46556,-1.98649 2.08679,-2.45267c2.0921,-1.56997 4.37688,-3.06511 6.70991,-4.23284c3.33402,-1.6631 7.18573,-3.21085 10.96102,-3.21085c0,0 0.03201,0 0.07983,0.0081c0.04792,0.00744 0.07829,0.01756 0.07829,0.01756l0.2757,0.09372c3.5928,1.5564 8.23123,2.01578 12.1035,2.56896c1.6164,0.17946 5.64574,0.13329 6.72093,1.44491c1.18777,1.44894 1.06381,5.11671 1.28534,6.92523c0.41667,1.46097 0.4064,3.01323 0.40486,4.52127c-0.00041,0.39973 0.02373,0.80037 0.07452,1.19686c0.0294,0.22947 -0.14536,0.89639 -0.03487,0.69314c0.25036,-0.46054 2.62669,-1.83032 3.12277,-1.64252c0.61115,0.23137 0.70827,2.10079 0.7839,2.63828c0,0.65264 -0.13421,3.34538 0.1737,3.79049c0.02274,0.03288 1.78778,-0.07075 1.93295,-0.07061c2.12946,0.00207 5.5032,-0.18436 5.15718,2.58381c0.00111,0.68831 0.16983,1.98073 -0.22032,2.58112c-1.20292,1.85117 -6.83389,0.01598 -8.72654,0.0195c0,0 -0.5,0 -0.5,-0.5c0,-0.5 0.5,-0.5 0.5,-0.5c2.06862,0.00349 4.10951,0.63306 6.15822,0.63161c0.29473,-0.00021 1.54855,0.21203 1.69507,-0.1384c0.23729,-0.56755 0.09461,-1.55215 0.09549,-2.15597c0.37983,-3.03867 -5.429,-0.2695 -6.80534,-1.75019c-0.54887,-0.59049 -0.4579,-3.61165 -0.4579,-4.42047c-0.54679,-3.76283 -0.77808,0.62098 -3.19897,-0.10956c-0.59881,-0.1807 -0.60577,-1.07645 -0.66649,-1.5175c-0.25941,-1.88437 0.06466,-3.78986 -0.46804,-5.6509c-0.2107,-1.65647 -0.05732,-5.14861 -1.0832,-6.49653c-0.73325,-0.96342 -4.88249,-0.94958 -6.06921,-1.08154c-3.98387,-0.56912 -8.66257,-1.06697 -12.37148,-2.64185l-0.11812,-0.03829c-3.58627,0.02156 -7.27371,1.52011 -10.43557,3.10504c-2.27966,1.1387 -4.50939,2.60355 -6.55394,4.13602c-0.14242,0.10675 -1.78018,1.30389 -1.70289,1.4949c0.09167,0.22654 0.82656,0.81326 1.03294,1.07384c0.24178,0.48355 0.52959,0.86746 0.76051,1.34689c2.099,-0.40632 4.44425,1.09618 6.42276,2.14094c0.32536,0.17181 0.97708,0.3445 1.48901,0.58847c-0.79307,-1.8031 -1.63643,-4.43467 -1.46968,-6.32722l-0.19574,-0.02175l0.06081,-0.5473c0.02472,-0.25304 0.23807,-0.45078 0.49761,-0.45078c0.15305,0 0.29003,0.06876 0.38174,0.17707l0.36675,0.42788c0.11142,0.13129 0.22286,0.26259 0.33428,0.39388c2.78447,2.15062 6.04942,5.59962 9.86029,5.57931c0,0 0.5,0 0.5,0.5c0,0.5 -0.5,0.5 -0.5,0.5c-3.95925,-0.01766 -7.26315,-3.2251 -10.19036,-5.57031c0.04203,0.27248 0.06536,0.5409 0.10492,0.72292c0.34621,1.593 0.75419,3.44791 1.48915,4.91078l0.29909,0.53836c0.04282,0.07372 0.06733,0.15938 0.06733,0.25077c0,0.27614 -0.22386,0.5 -0.5,0.5c-0.05938,0 -0.11634,-0.01035 -0.16918,-0.02935l-0.54223,-0.18075l0.05169,-0.15506c-3.16241,-0.93313 -7.2707,-4.94038 -9.79353,-1.94685c-1.62144,1.60538 -3.01833,4.9313 -3.50596,7.14609c-0.1945,0.8834 -0.80866,3.24609 -0.80763,3.24343c1.57571,-1.1406 3.4391,-1.66683 5.31824,-2.0581c0.37691,-0.07848 1.80756,-0.63047 2.14407,-0.37002c0.716,0.55416 -1.21706,4.39705 -1.43053,5.46186c-0.29348,1.07506 -0.1186,2.4134 -0.50601,3.41196c-0.12826,0.33061 0.52281,-0.49388 0.83947,-0.65352c0.01187,-0.00599 1.34683,-0.61264 1.37065,-0.62347c1.95279,-0.88762 3.74736,-1.86699 5.92474,-2.06975c0.69652,0.30423 1.91123,1.98024 1.59045,2.95685c-0.36113,1.09947 -5.89581,2.03581 -2.01428,3.62122c0.4908,0.20047 1.026,0.29551 1.54055,0.41043c3.58485,1.19907 9.11253,0.10898 12.39872,-1.53139c1.52581,-0.95512 2.90906,-1.37229 3.96738,-2.85393l0.30739,-0.43035c0,0 0.29062,-0.40686 0.69749,-0.11624z"/><path d="M300.43867,186.20165c0,0.5 -0.5,0.5 -0.5,0.5h-0.54746c-2.76592,0 -5.84031,0.0985 -8.54149,0.6998c0,0 -0.48809,0.10846 -0.59656,-0.37963c-0.10847,-0.48809 0.37963,-0.59656 0.37963,-0.59656c2.76803,-0.61411 5.92378,-0.72361 8.75842,-0.72361h0.54746c0,0 0.5,0 0.5,0.5z"/><path d="M290.13905,187.50828c0.5,0 0.5,0.5 0.5,0.5v0.10949c-0.00205,1.72411 0.28641,3.56724 0.546,5.27229c0.00608,3.16512 -0.11928,7.07919 0.44139,10.16162c0.03014,0.16571 1.65024,0.05358 1.80724,0.0541c0.74466,-0.13539 2.25399,0.57603 2.26338,-0.18078c0.01515,-1.22073 -0.97526,-3.05145 -0.37338,-4.23837c0.49838,-0.9828 4.58424,-0.58754 4.55595,-0.61246c-0.00411,-1.00265 -0.17972,-1.98963 -0.22154,-2.99009c-0.01596,-0.38168 0.36322,-1.14405 -0.01878,-1.14588c-0.95389,-0.00459 -3.86134,0.85122 -4.52566,0.12339c-0.91933,-1.00723 -0.78028,-3.35432 0.57745,-3.43952c1.50035,-0.00147 3.35021,0.30837 4.80741,0.04417c0.57053,-0.10344 -0.67913,-4.38375 -0.85985,-4.83364c0,0 -0.1857,-0.46424 0.27855,-0.64993c0.46424,-0.1857 0.64993,0.27855 0.64993,0.27855c0.5034,1.26333 1.92545,5.26787 0.34458,6.11567c-1.11061,0.5956 -3.97655,0.04533 -5.26594,0.04417c-0.3802,-0.24554 0.13255,1.26402 0.24897,1.81615c0.07951,0.37709 0.72475,-0.27482 1.10399,-0.34329c0.64119,-0.11577 2.44514,-0.336 3.0203,-0.08079c1.04615,0.46421 0.85937,3.91015 0.85461,4.95195c0.0629,1.64127 -1.74624,1.22334 -2.96042,1.09904c-0.14544,-0.01489 -1.66806,-0.06532 -1.68104,0.04039c-0.14439,1.17588 0.88678,3.13738 0.39307,4.19259c-0.46809,1.00045 -2.20267,0.64119 -3.10177,0.80466c-0.8436,0.00243 -2.28943,0.32497 -2.79147,-0.60286c-0.42636,-0.78797 -0.06612,-2.5309 -0.10692,-3.42874c-0.10751,-2.36568 -0.44201,-4.73391 -0.43714,-7.10383c-0.26885,-1.72856 -0.54702,-3.59995 -0.54892,-5.34853v-0.10949c0,0 0,-0.5 0.5,-0.5z"/><path d="M303.7228,187.99359c0.23258,0 3.81053,0.02495 4.7073,0.564c1.33938,0.8051 0.33619,5.07678 0.33619,6.4267c0,1.34992 1.02138,3.91883 1.46214,1.48663c0.33065,-1.82461 0.15105,-4.06037 -0.0778,-5.89163c-0.22884,-1.83125 2.49522,-3.14142 4.24148,-2.1779c1.68709,0.93087 1.2818,5.21972 1.51269,6.83593c0.23088,1.61621 -0.99613,7.71014 -4.09637,8.64953c-3.29098,0.9972 -3.19068,1.01992 -4.20449,0.74316c-2.96309,-0.80889 -3.67638,-5.09107 -4.01123,-7.45816c-0.33484,-2.36709 -0.36992,-9.17826 0.13008,-9.17826zM304.95481,189.00032c-1.21563,-0.15924 -0.70274,5.0483 -0.41239,7.76621c0.29035,2.71792 0.92521,6.07938 3.25963,6.67714c0.88166,0.22576 1.18845,0.46061 2.49994,0.07912c0.85864,-0.24976 4.56265,-3.88612 4.57367,-7.99908c0.01102,-4.11295 -0.22707,-3.60976 -0.63539,-5.24685c-0.01687,-0.06761 -0.13804,-1.12781 -0.30396,-1.18297c-1.18257,-0.39317 -3.00484,-0.11144 -2.82617,1.13957c0.17867,1.25101 0.75909,5.24288 -0.12571,6.86296c-1.6816,3.07905 -3.24699,-0.56603 -3.24979,-2.32522c-0.00279,-1.75919 0.21636,-2.97211 0.21636,-4.47136c0,-0.04677 0.07567,-1.05497 -0.02441,-1.07366c-1.17359,-0.21915 -1.75615,-0.06662 -2.97178,-0.22586z"/><path d="M317.64734,188.47258c0.06961,0 0.12953,0.00969 0.1811,0.02637c0.07191,-0.03999 0.13117,-0.0548 0.13117,-0.0548c1.15231,-0.28805 4.1272,-1.14305 5.18255,-0.39745c1.09996,0.77712 1.9287,3.34737 2.57217,5.0347c-0.38906,-1.74276 -1.26418,-5.05332 -0.57576,-5.88396c0.5412,-0.653 2.54548,-0.53316 3.32942,-0.58877c0.61105,0.00006 2.5219,-0.51051 2.97655,-0.18076c0.71366,0.5176 0.51561,2.00134 0.57455,2.76621c0.18984,2.46353 0.16032,4.93005 0.34795,7.38954c0.00123,1.80904 0.06475,3.61057 0.38205,5.38996c0.06945,0.38949 0.40058,1.87639 0.10505,2.19454c-0.83222,0.89593 -4.1786,0.02982 -5.31702,0.19952c-1.40428,0.49815 -2.57413,-1.24138 -3.44109,-3.03403c0.16617,0.75888 0.32906,1.63611 0.18529,2.0499c-0.25274,0.72742 -4.90191,2.41965 -5.56416,2.00473c-0.24629,-0.1543 -0.34828,-1.15369 -0.39209,-1.46093c-0.78819,-4.00774 -0.45913,-8.35246 -1.00172,-12.43274c-0.05324,-0.74161 -0.11751,-1.48225 -0.17454,-2.22358l-0.00147,-0.29847c0,0 0,-0.5 0.5,-0.5zM318.16355,189.42134c0.05175,0.65718 0.10789,1.31395 0.15462,1.97154c0.54138,4.04906 0.18395,8.39638 0.99255,12.36566c0.18163,1.26905 0.8713,0.20961 2.32542,-0.18167c0.16086,-0.04328 1.66566,-0.26305 1.68972,-0.48843c0.17156,-1.60686 -0.64043,-3.10591 -0.60804,-4.70807h-0.1946v-0.65031c0,-0.27614 0.22386,-0.5 0.5,-0.5c0.193,0 0.36047,0.10936 0.44381,0.26949l0.25526,0.46798l-0.00554,0.00302l0.0133,0.01181c0.42439,0.91863 2.35786,6.04219 3.53674,5.42257c1.59942,-0.25146 3.28634,0.20553 4.82778,0.11281c0.64805,-0.03898 -0.35892,-1.25122 -0.4606,-1.89244c-0.26012,-1.6405 -0.26743,-3.34667 -0.26621,-5.00324c-0.17421,-2.24496 -0.0693,-4.48665 -0.30125,-6.73152c-0.04855,-0.46985 0.13107,-2.30929 -0.16357,-2.62197c-0.55394,-0.58787 -1.59159,0.3394 -2.39932,0.33948c-0.49635,0.03572 -2.22837,-0.08374 -2.56671,0.1916c-0.01645,0.01339 0.36898,2.1911 0.39927,2.40284c0.24631,1.72156 0.80949,3.68652 0.63259,5.44658h0.1528v0.60695c0,0.27614 -0.22386,0.5 -0.5,0.5c-0.193,0 -0.36047,-0.10935 -0.44381,-0.26949l-0.25526,-0.46797c-0.28893,-0.53166 -0.50202,-1.08428 -0.75221,-1.63434c-0.64161,-1.37484 -1.46886,-4.58565 -2.61286,-5.52626c-0.60135,-0.49444 -3.61531,0.37133 -4.3553,0.55634c0,0 -0.0143,0.00357 -0.0386,0.00704z"/><path d="M335.08065,204.13326c0,-0.00882 0.00015,-0.01748 0.00046,-0.026c-0.32075,-3.56952 -0.41983,-7.1718 -0.74843,-10.75055c-0.14044,-1.55996 -0.95134,-5.11368 -0.23186,-6.55826c0.6658,-1.33679 5.61904,-0.53808 6.13947,0.3224c0.06701,0.64603 0.11647,1.29655 0.15205,1.94875c0.37389,-1.04291 0.87505,-1.95414 1.31101,-2.1635c1.33719,-0.64218 4.17914,-0.09486 5.66344,-0.09486c0.33323,0 1.39535,-0.04853 1.55597,0.24643c0.34239,0.62876 -0.74531,1.52568 -1.0447,1.9409c-1.16668,1.61803 -2.12223,3.3486 -3.00988,5.12437c-0.2374,0.47493 -1.17445,1.474 -0.6721,1.84703c1.66072,1.65894 3.1573,3.58138 4.35143,5.60565c0.2159,0.36599 1.24974,1.79498 1.12798,2.18792c-0.28721,0.92684 -2.49642,0.8158 -3.24811,0.81553c-0.79237,0.08021 -2.4167,0.46661 -3.14147,0.10855c-0.56523,-0.27924 -1.10352,-0.98989 -1.58066,-1.82808c-0.01599,0.68984 -0.14529,1.25842 -0.42251,1.4659c-1.03896,0.77759 -4.36622,0.30782 -5.64851,0.30782h-0.05358c0,0 -0.5,0 -0.5,-0.5zM343.73311,203.79319c0.4615,0.23899 2.07595,-0.15667 2.64445,-0.21289c0.58477,-0.0002 1.11581,-0.11099 1.68998,-0.1589c0.09105,-0.0076 0.25547,-0.0017 0.39897,0.01363c-0.37117,-0.36816 -0.87761,-1.53596 -1.02745,-1.74766c-1.24708,-1.76199 -2.44009,-3.49952 -3.97325,-5.03423c-1.10152,-1.47928 1.36568,-4.88956 2.30283,-6.34599c0.16793,-0.26098 1.34064,-1.88709 1.94362,-2.51478c-0.12513,0.0152 -0.25612,0.01885 -0.34549,0.01885c-1.46039,0 -3.90292,-0.47788 -5.26552,0.01228c-0.67935,0.24438 -1.77949,5.82721 -2.02046,5.82721c-0.24577,0 -0.45013,-0.17733 -0.4921,-0.41102c0,0 -0.1816,-4.09493 -0.31025,-5.84524c-0.00045,-0.0035 -4.24966,-0.24107 -4.25376,-0.21334c-0.27917,1.88823 0.13054,4.19527 0.30388,6.08505c0.31104,3.45344 0.41424,6.92887 0.71481,10.37476c1.43071,0.04836 3.45841,0.29553 4.657,-0.12844c0.11167,-0.0395 -0.1501,-1.18265 -0.15038,-1.18465c-0.14431,-1.01407 -0.70132,-3.68139 -0.70132,-3.71264c0,-0.27614 0.22386,-0.5 0.5,-0.5c0.20787,0 0.66747,0.78074 0.66747,0.78074c0,0 1.62039,4.32936 2.71696,4.89724z"/><path d="M352.36989,192.34863c-4.73106,-0.48586 -2.10887,-8.83549 2.21181,-5.77708c1.47449,1.83167 1.09889,5.34163 -1.52693,5.88804l-0.34478,0.00971c0,0 -0.19381,-0.00001 -0.3401,-0.12067zM353.05429,191.43094c1.59135,-0.48481 1.77714,-2.95183 0.84329,-4.13002c-2.87027,-1.97711 -4.69295,4.07294 -1.08891,4.06968c0,0 0.1221,0 0.24562,0.06034z"/><path d="M351.17607,195.70541c0.36078,1.78596 0.74845,3.79219 0.75098,5.49115c0.00142,0.95462 -0.33711,2.60763 0.77461,2.27484c0.12986,-0.02178 1.83455,-0.20855 1.84721,-0.25859c0.35829,-1.41642 -0.36987,-3.65496 -0.55818,-5.10869c-0.02824,-0.21803 -0.20994,-2.9696 -0.26094,-2.96896c-0.29222,0.00362 -0.56427,0.16748 -0.8555,0.19175c-0.56817,0.10307 -1.13519,0.23855 -1.69816,0.3785zM350.97794,194.72499c0.58535,-0.144 1.17402,-0.28177 1.76517,-0.38944c0.15056,-0.01254 1.38648,-0.1188 1.41431,-0.10431c0.63972,0.33302 0.57331,1.31486 0.67349,1.89579c0.27498,1.59448 1.41658,6.21033 0.57982,7.59292c-0.40844,0.67487 -1.81582,0.61586 -2.49505,0.72829c-0.51969,0.13166 -1.02416,0.36753 -1.54301,-0.08243c-0.56457,-0.4896 -0.44667,-2.49514 -0.44562,-3.16924c0.00255,-1.63736 -0.38362,-3.5962 -0.73663,-5.32693c-0.15047,-0.01437 -0.40088,-0.09058 -0.44376,-0.43361c-0.03635,-0.29082 0.11907,-0.43248 0.25393,-0.49992c-0.00045,-0.00227 -0.00091,-0.00455 -0.00136,-0.00682c0,0 -0.09806,-0.49029 0.39223,-0.58835c0.45266,-0.09053 0.57099,0.32043 0.58649,0.38405z"/><path d="M356.88508,188.06202c-0.14782,-0.03404 -0.3822,-0.14199 -0.3822,-0.48432c0,-0.32763 0.21468,-0.44057 0.3627,-0.47951c0.04223,-0.03335 0.09455,-0.06312 0.15912,-0.08734c0.20762,-0.07786 0.3577,-0.02911 0.46043,0.04926c1.56817,-0.09871 4.32291,-0.55871 5.37973,0.02788c1.07856,0.59865 1.82929,3.01065 2.25571,4.4521c-0.08267,-0.91365 -0.15517,-1.82829 -0.22765,-2.7382c-0.04068,-0.51065 -0.24482,-1.66754 0.19993,-2.07683c0.66031,-0.60767 2.64029,-0.28903 3.47725,-0.28839c0.43926,0.0363 1.7526,-0.06214 2.08525,0.18422c0.60893,0.45096 0.53493,2.11886 0.56472,2.81269c0.12497,2.91036 0.04971,5.83898 0.04971,8.75303c0,1.40974 1.04503,4.32706 0.51772,5.58414c-0.42267,1.00762 -5.41784,0.83345 -6.39007,0.23263c-0.46248,-0.28581 -0.60969,-0.92409 -0.76705,-1.38911c-0.62878,-1.35835 -1.37578,-2.65496 -2.05245,-3.98514c0.00114,0.06045 0.00306,0.11642 0.00632,0.16672c0.05912,0.91424 0.79122,3.66713 0.15597,4.32789c-0.33851,0.35209 -3.97784,1.12477 -4.43758,0.9076c-0.61838,-0.29212 -0.62074,-0.99971 -0.70912,-1.5301c-0.57756,-4.33685 0.06217,-8.70081 -0.29623,-13.07725c-0.09653,-0.4812 -0.22956,-0.90627 -0.41221,-1.36196zM357.93637,188.01469c0.14904,0.41546 0.26209,0.82334 0.3511,1.26948c0.37027,4.37401 -0.28241,8.74268 0.2959,13.07494c0.11979,0.87806 2.4651,0.65456 3.43911,0.0683c0.09015,-0.05426 -0.3231,-1.58409 -0.33648,-1.72872c-0.12362,-1.33577 -0.24715,-4.67406 -0.24715,-4.67406c0.02047,-0.25735 0.2358,-0.45981 0.49841,-0.45981c0.20635,0 0.3835,0.125 0.45987,0.30341l0.24203,0.53247l-0.00253,0.00115l0.00577,0.00612c0.8365,2.00967 2.00602,3.85728 2.91773,5.83809c0.44965,1.37198 2.28901,0.85751 3.67561,1.12404c0.15439,0.02967 1.56227,0.4162 1.6019,0.08798c0.19359,-1.60363 -0.56785,-3.60725 -0.56785,-5.27148c0,-2.72233 0.05975,-5.45418 -0.04902,-8.17324c-0.00991,-0.24768 -0.06009,-2.5426 -0.12604,-2.56441c-0.31736,-0.10496 -1.16123,0.02089 -1.56619,-0.01315c-0.61721,0.00051 -2.23311,-0.28355 -2.74007,0.00767c-0.13819,0.07939 0.17966,2.20873 0.19994,2.46279c0.17624,2.20794 0.69241,7.63887 0.69241,7.63887c0,0.27614 -0.22386,0.5 -0.5,0.5c-0.21462,0 -0.39766,-0.13522 -0.46857,-0.32512l-0.19305,-0.48262l0.00779,-0.00312l-0.015,-0.01608c-0.4937,-1.60162 -0.75211,-3.25543 -1.19348,-4.86456c-0.30896,-1.03339 -0.99437,-3.7846 -1.92723,-4.38491c-0.6159,-0.39634 -2.97231,-0.09554 -4.45491,0.04596z"/><path d="M375.4833,190.95532c-0.50324,-0.07867 -1.07714,-0.21934 -1.28922,-0.48121c-0.49812,-0.61506 -0.59477,-4.4512 0.02472,-5.02943c0.97765,-0.91252 3.71919,0.40265 4.83578,0.60566c2.07465,0.77724 -1.69252,6.09628 -2.41051,7.67365l-0.01602,0.01411l0.0066,0.00367l-0.24187,0.43536c-0.08397,0.15818 -0.25036,0.26591 -0.44192,0.26591c-0.26627,0 -0.48394,-0.20815 -0.49915,-0.47061c0,0 -0.03997,-2.17192 0.03158,-3.01711zM376.4913,191.73505c0.43819,-0.87207 0.89572,-1.73655 1.33224,-2.60602c0.19415,-0.3867 1.31983,-2.26121 1.04355,-2.09642c-0.62019,-0.11276 -3.48693,-1.26778 -3.9474,-0.87465c-0.23242,3.04681 -0.93345,3.59969 1.9019,3.94079c0.10846,0.07694 -0.33435,1.35957 -0.33029,1.6363z"/><path d="M370.94433,224.10524c0,-0.02746 0.00151,-0.05341 0.00436,-0.07793c-0.00436,-0.03364 -0.00436,-0.05482 -0.00436,-0.05482c0.00261,-0.58871 -0.51215,-2.04911 -0.20634,-2.55904c1.88944,-3.15055 6.06744,1.83606 3.61904,3.15373c-0.54773,0.29477 -1.94916,0.03806 -2.58083,0.03806h-0.33187c0,0 -0.5,0 -0.5,-0.5zM371.92283,223.60654c0.53238,0.00599 2.16524,0.02788 2.16104,-0.03934c-0.01373,-0.21961 -0.57685,-2.06084 -0.75469,-2.11236c-1.88768,-0.54685 -1.51092,1.05605 -1.40635,2.1517z"/><path d="M358.10405,224.6664c0.35747,-3.73073 -0.63377,-8.84595 -0.63377,-12.64133c0.00108,-0.88109 -0.26814,-2.93297 0.19401,-3.69128c0.49258,-0.80827 1.32372,-0.59207 2.09811,-0.59207c2.37656,0 4.73316,-0.19912 7.10208,-0.19912c1.87531,0.00322 3.17215,3.86619 2.01224,5.48505c-1.02912,1.43633 -3.97538,-0.02885 -4.93114,0.69748c-0.36459,0.27707 0.09955,0.91237 0.09773,1.37028c0.16919,0.83375 -0.03776,2.88378 0.35953,3.52283c0.36523,0.58748 3.76882,-1.01967 4.5616,-0.22094c0.73105,0.73655 0.35002,3.39097 0.45689,4.3528c-0.00008,0.1929 0.00363,1.33882 -0.0204,1.37226c-0.46655,0.64941 -2.13256,0.48288 -2.80195,0.48288c-2.97339,0 -8.62803,0.0619 -8.49493,0.06115zM359.10479,223.79021c2.25053,-0.04556 4.50507,-0.18497 6.76406,-0.18497c1.40404,0 2.55448,0.47643 2.554,-0.79984c-0.11556,-1.04002 0.20967,-2.81598 -0.20686,-3.7449c-0.17022,-0.37963 -0.81337,0.1824 -1.22653,0.23133c-0.92193,0.10919 -2.64897,0.78437 -3.37158,-0.05402c-0.59807,-0.6939 -0.38964,-3.13111 -0.56971,-4.04387c-0.00165,-0.4832 -0.16078,-1.85406 0.23048,-2.21394c0.76208,-0.70097 4.21481,0.4002 4.75956,-0.49726c0.59003,-0.97206 -0.00817,-3.9424 -1.17375,-3.94014c-2.1271,0 -4.23887,0.19912 -6.37196,0.19912c-0.20039,0 -1.87505,-0.16452 -1.95074,0.07168c-0.27218,0.84941 -0.07271,2.31207 -0.0715,3.21167c0,3.81706 0.93132,7.99645 0.63452,11.76515z"/><path d="M355.5498,224.43712c0,0.5 -0.5,0.5 -0.5,0.5h-0.13275c-1.45431,0 -4.07854,0.44485 -5.33682,-0.35988c-1.00024,-0.6397 -1.38454,-2.67714 -1.93778,-3.68235c-0.16887,-0.30684 -0.58875,-0.93555 -0.92773,-1.56037c0.09551,1.85466 0.21569,4.32602 -0.40296,5.37131c-0.55948,0.94534 -4.54454,0.92658 -5.50279,0.6768c-0.36592,-0.09538 -0.16723,-7.63689 -0.06446,-11.1423c0.10277,-3.50541 -0.53346,-4.60375 0.17933,-5.9452c0.41931,-0.78913 5.12515,-1.02182 6.06361,-0.65707c0.82952,0.32241 0.68838,1.06164 0.96949,1.70514c0.37622,1.49967 0.97655,2.92035 1.54424,4.35423c-0.0582,-1.44006 -0.68878,-5.09506 0.55758,-5.77577c0.43152,-0.23568 1.65263,-0.0472 2.13694,-0.0472c1.16568,0 3.61013,-0.37016 4.3985,0.75365c1.1573,1.64971 0.15084,6.6547 0.14938,8.60525c-0.27008,2.16064 -0.26453,4.49256 -0.26453,6.67276v0.19913c0,0 0,0.5 -0.5,0.5c-0.24423,0 -0.36917,-0.1193 -0.43308,-0.24135c0.00251,0.02313 0.00383,0.04752 0.00383,0.07323zM345.43204,224.1684c0.47723,-1.79084 0.18715,-4.48654 0.18715,-6.36874v-0.531c0,-0.27614 0.51513,-0.46359 0.79127,-0.46359c0.17013,0 2.0792,3.35523 2.62859,4.72438c0.22143,0.55183 0.57425,1.90174 1.08948,2.23655c0.96667,0.62816 3.58392,0.17112 4.75212,0.17112h0.13275c0,0 0.29933,0 0.43479,0.23159c-0.00554,-0.03862 -0.00554,-0.06347 -0.00554,-0.06347v-0.19913c0,-2.19814 -0.00591,-4.55587 0.26647,-6.7349c-0.00145,-1.8838 0.93993,-6.34205 0.01663,-7.9884c-0.34925,-0.62276 -2.96563,-0.30835 -3.56645,-0.30835c-0.49823,0 -1.22942,-0.13147 -1.71278,-0.04721c-0.15409,0.02686 -0.04395,1.96631 -0.04395,2.20219c0,2.08454 0.45038,7.11584 0.45038,7.11584c0.00931,0.03814 -0.20961,0.61899 -0.48576,0.61899c-0.23795,0 -0.43708,-0.16622 -0.48761,-0.38888c0,0 -2.20874,-5.91116 -2.90671,-8.71294c-0.66593,-1.58077 -1.44015,-0.8341 -3.20168,-0.92137c-0.1777,-0.0088 -1.94912,-0.22684 -1.97816,-0.0218c-0.2478,1.74958 -0.08443,3.69297 -0.08616,5.47123c0.33565,3.35656 0.30559,6.83091 0.33098,10.21273c0.99692,-0.0434 3.34996,-0.0688 3.39421,-0.23485z"/><path d="M328.69032,212.28979c-1.07658,0.17557 -2.66143,0.46688 -3.25852,-0.00367c-0.69473,-0.54749 -0.70847,-4.4147 -0.22052,-5.10115c0.64611,-0.90896 2.28489,-0.50737 3.18075,-0.43278c2.54583,0.21219 5.10142,-0.01464 7.64856,0.1974c0.54041,0.04499 2.42951,-0.04365 2.7627,0.42797c0.50485,0.71458 0.2602,3.52394 0.25511,4.44428c-1.60068,1.05815 -3.01009,-0.02747 -4.53251,0.51363c-0.45592,0.16205 0.15771,0.95601 0.19496,1.43844c0.06879,0.89081 0.08695,1.77889 0.14839,2.66939c0.04084,0.59199 0.0176,3.2346 0.13822,3.1879c0.78203,-0.00042 2.36192,-0.13854 3.07799,0.12373c0.80976,0.29659 2.05817,3.84714 1.57966,4.6681c-0.69031,1.18431 -4.46176,0.49923 -5.70725,0.49874c-2.2646,-0.16176 -4.48842,-0.05722 -6.7459,0.14625c-0.45465,0.04098 -1.41316,0.05048 -1.79965,-0.26424c-1.20355,-0.98005 -0.56371,-5.05673 0.64015,-5.46461c0.50397,-0.03488 1.83825,0.52685 2.21889,0.06478c0.97204,-1.17996 0.55671,-5.34135 0.42004,-6.82843zM329.68908,212.09629l-0.00178,0.38868c0.15982,1.77584 0.569,6.18134 -0.66552,7.57993c-0.68289,0.77366 -1.9009,0.20388 -2.81417,0.26215c-0.39745,-0.00113 -0.39524,3.37814 -0.14935,3.71333c0.46985,0.64047 1.11168,0.05213 1.90293,-0.01769c2.01988,-0.17822 4.00543,-0.24508 6.03232,-0.1003c0.49418,-0.0002 4.6783,0.28955 4.75362,0.10399c0.16386,-0.40365 -0.27442,-0.83217 -0.33251,-1.26392c-0.32052,-2.38243 -1.29872,-2.13415 -3.49697,-2.13532c-1.65568,-0.5188 -1.06402,-5.08217 -1.19371,-6.77471c-0.049,-0.63946 -0.40693,-1.79711 0.19496,-2.31168c0.82172,-0.70251 3.2252,0.16143 4.25068,-0.17718c-0.41195,-1.08533 -0.00633,-2.28675 -0.13964,-3.35203c-0.08584,-0.68599 -1.38404,-0.00799 -2.07298,-0.06546c-2.54691,-0.21248 -5.10175,0.0148 -7.64799,-0.19735c-0.30891,-0.02577 -2.07636,-0.36916 -2.24706,-0.03803c-0.13745,0.26663 -0.2713,3.58911 -0.02314,3.78072c0.37965,0.29314 2.76511,-0.25924 3.31232,-0.29875c0,0 0.49873,-0.03562 0.53435,0.46311c0.01673,0.23423 -0.0844,0.36631 -0.19638,0.44052z"/><path d="M265.08859,216.97828c-0.11232,-0.62509 -0.78406,-2.11681 -0.35417,-2.69047c0.98147,-1.30969 4.94984,0.19428 6.06355,-1.1383c0.38446,-0.46001 -0.50617,-3.76067 -0.50606,-4.47673c-0.01496,-0.14803 -0.06095,-1.41109 -0.093,-1.42337c-0.68477,-0.26236 -2.85744,0.40988 -3.66355,0.46565c-1.61507,0.11174 -3.24517,0.00809 -4.86276,0.07981v0.16595c0,4.16967 0.05755,8.34597 0.05649,12.511c0.10669,0.94693 0.29324,3.16916 1.32749,3.64548c2.09159,0.96327 5.97161,0.23215 8.22922,0.23392c0.94683,-0.02146 0.47692,-3.75105 -0.06306,-4.14878c-0.34433,-0.25361 -2.49474,-0.0344 -3.86973,0.0923c-0.21742,0.02004 -2.14359,1.01225 -2.26442,-3.31645zM260.33214,207.61525c-0.05521,-0.49694 0.61349,-0.72392 0.61349,-0.72392c2.48678,-0.27278 4.44436,-0.12735 6.93957,-0.3447c0.64217,-0.05594 2.29058,-0.50555 2.81143,-0.16458c0.65951,0.43175 0.52911,1.58495 0.59405,2.24089c0.0002,1.22093 1.04438,4.14842 0.2955,5.14196c-0.70243,0.93193 -3.36064,0.97079 -4.3951,1.10424c-0.55536,0.07164 -1.53146,-0.49249 -1.67923,0.04763c-0.05347,0.19543 0.50752,1.59386 0.5619,1.88986c0.14285,0.85958 0.2771,1.70746 0.44804,2.5581c1.26447,-0.05597 4.5082,-0.55776 5.32667,0.05766c1.52073,1.14347 1.3358,5.70928 -0.5211,5.92795c-2.34133,0.0017 -6.57757,0.77696 -8.71799,-0.33862c-1.43081,-0.74573 -1.72477,-3.08095 -1.87875,-4.48461c-0.00093,-3.71041 -0.39224,-12.85565 -0.39848,-12.91186z"/><path d="M273.59663,208.37354c0.5,0 0.5,0.5 0.5,0.5c0,0.51371 0,1.23292 0,1.74663c0,3.89068 0.3596,7.76991 0.3596,11.66136c0,0.58738 -0.16399,1.42588 -0.05279,1.98537c0.02232,0.11231 1.83206,-0.01953 2.01863,-0.01953c0.69139,0 2.21114,0.74218 2.07315,0.0647c-0.21243,-1.04297 -0.48712,-2.26836 -0.80543,-3.32527c-0.12986,-0.47131 -0.49411,-1.28219 0.24909,-1.63817c1.53882,-0.73708 3.54915,4.09746 4.40904,4.54056c0.72969,0.376 3.19822,-0.20618 4.09161,-0.2069c0.01679,0 0.74167,-0.05155 1.07148,0.02385c-0.04717,-0.13847 -0.089,-0.32341 -0.11632,-0.42295c-0.18133,-0.66084 -0.44607,-1.28439 -0.88123,-1.81698c-1.16143,-1.42147 -2.34599,-2.10548 -3.95458,-2.9549c-0.1784,-0.0942 -0.33678,-0.21963 -0.48121,-0.36293l-0.04787,0.06382l-0.40632,-0.30473c-0.12409,-0.09098 -0.20466,-0.23783 -0.20466,-0.4035c0,-0.27614 0.22386,-0.5 0.5,-0.5h0.51371c3.46765,0.00304 2.22677,-4.13189 1.01889,-6.31724c-1.84321,-2.45872 -5.37117,-4.31061 -8.37907,-2.60903c0,0 -0.43708,0.24282 -0.6799,-0.19426c-0.24282,-0.43708 0.19426,-0.6799 0.19426,-0.6799c3.5073,-1.92038 7.52676,0.03746 9.70374,2.93911c1.42232,2.54834 2.39554,6.84882 -0.64773,7.70897c0.36937,0.19653 0.72631,0.43248 0.93895,0.55408c2.02668,1.15895 6.38751,6.27659 1.85784,6.27659c-1.13973,-0.001 -3.52398,0.60394 -4.53882,0.10133c-1.02465,-0.50747 -3.61474,-5.14961 -3.25309,-4.08415c0.22251,0.74436 1.13089,3.38031 0.73571,4.07225c-0.53179,0.93113 -5.38808,0.77962 -5.87431,-0.05759c-0.28522,-0.4911 -0.05279,-1.86879 -0.05279,-2.43258c0,-3.89137 -0.3596,-7.7706 -0.3596,-11.66136c0,-0.51371 0,-1.02743 0,-1.54115v-0.20549c0,0 0,-0.5 0.5,-0.5z"/><path d="M277.6192,212.05291c0.20525,-0.21487 0.51868,-0.10541 0.51868,-0.10541c0.42886,0.15042 0.75833,0.24364 1.15676,0.48626c2.85607,1.73911 -2.55886,3.83664 -2.18659,0.43409l0.22084,-0.52875c0,0 0.08972,-0.21069 0.2903,-0.28619zM278.12908,213.00562l-0.05904,0.13531c-0.19185,0.71468 1.14843,0.74229 1.20168,0.46766c0.02901,-0.14963 -0.69811,-0.43981 -1.14264,-0.60297z"/><path d="M288.44083,207.94512c-0.12361,-0.06318 -0.24586,-0.18817 -0.24586,-0.43541c0,-0.5 0.5,-0.5 0.5,-0.5c1.97463,0 6.76658,-0.79428 8.51894,0.23008c0.98362,0.57499 0.66904,2.34259 0.66904,3.29035c-0.00015,0.43332 0.20717,1.69672 -0.05062,2.04297c-0.57396,0.77091 -4.36756,0.28198 -4.51105,0.70873c-0.66925,1.99034 3.04264,0.3444 3.70813,1.99615c0.00477,0.54196 0.25318,2.09941 -0.06957,2.54007c-0.43752,0.59735 -0.98451,0.50343 -1.5792,0.50863c-0.39329,0.00344 -1.54715,-0.06151 -1.17764,0.07319c2.39368,0.87259 4.44689,-0.98727 5.10288,2.36403c0.00416,0.95534 0.42906,3.20067 -0.55939,3.77783c-0.44378,0.25913 -1.55964,0.0894 -2.06865,0.06267c-2.01016,-0.10556 -5.6826,0.35433 -7.28282,-0.80476c-0.99246,-3.96153 -0.26834,-8.26463 -0.51913,-12.30658c-0.14793,-1.1829 -0.21507,-2.3747 -0.43506,-3.54796zM289.46449,207.99118c0.19253,1.12924 0.26507,2.27227 0.40705,3.40865c0.24904,3.95753 0.0129,7.90255 0.36324,11.85686c0.47296,0.31918 1.68258,0.09179 2.27782,0.11114c1.71284,0.05567 4.09661,0.72282 5.74667,0.30065c0.20643,-0.05282 0.04998,-2.52157 0.05149,-2.80602c-0.59822,-2.91344 -3.76382,0.17711 -4.94259,-1.91208c-1.38126,-2.44807 2.44882,-1.11401 2.74103,-1.65805c0.14627,-0.27233 -0.07406,-1.48673 -0.06957,-1.8718c0.05115,-0.49409 -2.193,0.16097 -2.68931,0.0122c-0.82331,-0.2468 -1.39876,-1.93362 -0.86517,-2.69941c0.83659,-1.20063 3.8768,0.17825 4.5163,-0.71664c0.03287,-0.046 -0.11846,-1.3809 -0.11849,-1.48653c0,-0.26843 0.17811,-2.30347 -0.14546,-2.41114c-1.92715,-0.64125 -5.02154,-0.22438 -7.273,-0.12783z"/><path d="M299.75561,209.30435c-0.10278,-0.07053 -0.19161,-0.19245 -0.19161,-0.4032c0,-0.5 0.5,-0.5 0.5,-0.5c1.16991,0 4.72321,-0.48021 5.51206,0.67214c0.44981,0.65709 0.57089,2.04129 0.6455,3.36905c0.34061,-1.13868 0.81565,-2.31882 1.00573,-2.88984l0.00327,-0.00448l-0.0015,-0.00054l0.16577,-0.46416c0.0659,-0.19913 0.25356,-0.34279 0.47479,-0.34279c0.1827,0 0.34252,0.09799 0.42975,0.24429l0.43657,0.70522l-0.11746,0.07272c0.95522,1.45571 1.48453,3.24855 2.05841,4.93146c0.03974,-0.14578 0.07511,-0.28279 0.09133,-0.39864c0.16628,-1.18699 0.19229,-5.69587 1.38012,-6.46076c1.21509,-0.78245 4.57804,-0.26325 6.0575,-0.34974c2.00136,0.09594 1.23241,1.90242 1.19324,3.29653c-0.08843,3.14739 -0.75388,5.91993 -1.6194,8.89667c-0.4994,1.39803 -1.21216,3.84532 -2.37787,4.82974c-0.60793,0.51338 -4.3086,0.8293 -5.07475,0.41765c-0.58932,-0.31664 -0.77481,-1.31791 -0.90647,-2.1003c-0.10061,0.41472 -0.22154,0.76442 -0.33193,0.94311c-0.55319,0.89547 -5.11258,1.67306 -6.10522,0.93678c-0.50571,-0.3751 -0.65461,-1.96792 -0.78963,-2.54245c-1.16399,-3.9682 -1.615,-8.47696 -2.38368,-12.55861zM300.78463,209.37392l0.00836,0.04596c0.75653,4.05411 1.20603,8.54897 2.36756,12.4872c0.07371,0.31292 0.24586,1.8567 0.43211,2.00516c0.3561,0.28385 4.49716,-0.33569 4.61901,-0.62434c0.48681,-1.15321 0.30271,-2.16651 0.66854,-3.19022l-0.18916,-0.07094l0.19953,-0.53207c0.06806,-0.19526 0.2538,-0.33537 0.47226,-0.33537c0.2423,0 0.44435,0.17235 0.49023,0.40115l0.13361,0.60126l-0.00356,0.00079l0.00583,0.00997c0.11014,0.62345 0.21301,1.24673 0.30666,1.87289c0.04961,0.22328 0.32978,1.94484 0.47865,1.98584c0.65857,0.18139 1.88481,-0.17095 2.58005,-0.18836c0.15382,-0.00385 1.17812,0.13513 1.37255,-0.07274c0.9969,-1.06582 1.61698,-3.04323 2.10187,-4.40124c0.80922,-2.72317 1.30637,-5.17037 1.5382,-8.03034c0.05344,-0.65928 0.55414,-2.92794 -0.13173,-2.85391c-1.56584,0.09271 -4.15023,-0.33499 -5.54909,0.19326c-0.12181,0.046 -0.2872,1.66006 -0.32386,1.82529c-0.40895,1.84272 -0.37545,3.80693 -0.98245,5.58109l0.07372,0.00983l-0.06695,0.50215c-0.02927,0.24826 -0.24041,0.44083 -0.49654,0.44083c-0.19401,0 -0.36221,-0.1105 -0.44511,-0.27199l-0.23269,-0.43214l0.0101,-0.00544l-0.02384,-0.02208c-0.55144,-1.41609 -1.99081,-3.90609 -2.25704,-5.69177c-0.43682,1.46615 -0.75278,2.93125 -1.36392,4.31856l0.08276,0.01881l-0.16748,0.7369c-0.04675,0.22768 -0.24827,0.39891 -0.48978,0.39891c-0.25612,0 -0.46727,-0.19258 -0.49654,-0.44083l-0.06536,-0.4902c-0.31812,-1.60753 -0.11387,-4.09148 -0.70798,-5.54441c-0.15604,-0.38161 -2.64988,-0.29253 -3.94853,-0.23746z"/></g></g></svg>