<svg version="1.1" xmlns="http://www.w3.org/2000/svg" xmlns:xlink="http://www.w3.org/1999/xlink" width="99.09759" height="57.35653" viewBox="0,0,99.09759,57.35653"><g transform="translate(-270.45121,-151.32174)"><g data-paper-data="{&quot;isPaintingLayer&quot;:true}" fill-rule="nonzero" stroke-linecap="butt" stroke-linejoin="miter" stroke-miterlimit="10" stroke-dasharray="" stroke-dashoffset="0" style="mix-blend-mode: normal"><path d="M270.45121,208.67828l6.03544,-45.33398l93.06215,-12.02255l-7.32904,46.5944z" fill="#330066" stroke="#000000" stroke-width="0"/><path d="M278.94847,189.91561l-5.11232,-33.62761l64.91492,8.67678l4.20998,32.71796z" data-paper-data="{&quot;index&quot;:null}" fill="#cc00ff" stroke="#000000" stroke-width="0"/><g stroke="none" stroke-width="0.5"><path d="M324.64141,180.28734c1.72854,-0.01605 6.24281,-0.89114 6.24281,2.5c0,1.83185 -1.18349,2.3564 -2.5,2.5c-3.58544,0.39109 -7.27591,1.10359 -10.72759,1.50681c-0.34175,1.70603 -0.84898,3.2936 -1.68791,4.16312c-0.68135,0.7062 -3.20817,2.08576 -3.20817,-1.25749c-0.04875,-0.19487 -0.07465,-0.39879 -0.07465,-0.60877c0,-0.19121 0.02147,-0.37742 0.06213,-0.55633c0.43696,-4.70114 -0.48547,-13.91284 1.27562,-15.23134c3.09963,-2.32065 1.24987,-0.44544 4.36231,-0.40313c2.63956,0.03588 5.14339,-0.17464 7.73288,-0.19699c0.68113,-0.00588 6.18626,-0.27868 5.15936,2.5c-1.98967,5.3838 -8.625,0.9108 -12.38727,3.27949c-0.66422,0.41819 -0.21717,1.55404 -0.36587,2.32611c2.28098,-0.39765 4.57085,-0.50714 6.11635,-0.52149z" fill="#000000"/><path d="M301.21043,187.19157c4.73919,-0.00606 4.02471,-7.96368 4.10486,-11.11252c0.04342,-1.7056 -0.30014,-4.28392 2.26296,-4.28392c3.5485,0 2.06062,7.30843 1.97261,9.69733c-0.26011,7.06074 -4.4094,10.86717 -10.68299,10.69912c-5.84596,-0.1566 -6.43406,-8.03646 -7.15183,-12.66572c-0.26855,-1.732 -1.06457,-5.72088 0.16892,-6.49956c0.39364,-0.73685 1.1197,-1.23117 1.95025,-1.23117c1.2498,0 2.26296,1.11929 2.26296,2.5c0,0.29693 -0.04685,0.58177 -0.13285,0.84599c1.15421,4.80537 -0.92288,12.05835 5.24511,12.05046z" fill="#000000"/><path d="M339.83475,185.96743c0.00132,0.14808 2.0159,0.33986 2.10554,0.34137c1.31722,0.02229 13.39995,-1.82174 10.34288,4.04752c-1.30211,2.4999 -14.95107,2.25205 -16.6572,0.46097c-2.24247,-2.35414 -1.27545,-5.14949 -1.23611,-8.27222c0.03936,-3.12559 -2.32665,-7.81867 0.38734,-9.36951c0.4876,-0.82618 1.38695,-1.38042 2.41573,-1.38042c1.5481,0 2.80308,1.25499 2.80308,2.80308c0,0.10118 -0.00536,0.2011 -0.01582,0.29952c1.20089,3.11191 -0.18009,7.20517 -0.14544,11.06972z" fill="#000000"/><path d="M320.64939,176.29531c1.72854,-0.01605 6.24281,-0.89114 6.24281,2.5c0,1.83185 -1.18349,2.3564 -2.5,2.5c-3.58544,0.39109 -7.27591,1.10359 -10.72759,1.50681c-0.34175,1.70603 -0.84898,3.2936 -1.68791,4.16312c-0.68135,0.7062 -3.20817,2.08576 -3.20817,-1.25749c-0.04875,-0.19487 -0.07465,-0.39879 -0.07465,-0.60877c0,-0.19121 0.02147,-0.37742 0.06213,-0.55633c0.43696,-4.70114 -0.48547,-13.91284 1.27562,-15.23134c3.09963,-2.32065 1.24987,-0.44544 4.36231,-0.40313c2.63956,0.03588 5.14339,-0.17464 7.73288,-0.19699c0.68113,-0.00588 6.18626,-0.27868 5.15936,2.5c-1.98967,5.3838 -8.625,0.9108 -12.38727,3.27949c-0.66422,0.41819 -0.21717,1.55404 -0.36587,2.32611c2.28098,-0.39765 4.57085,-0.50714 6.11635,-0.52149z" fill="#ffffff"/><path d="M297.21841,183.19954c4.73919,-0.00606 4.02471,-7.96368 4.10486,-11.11252c0.04342,-1.7056 -0.30014,-4.28392 2.26296,-4.28392c3.5485,0 2.06062,7.30843 1.97261,9.69733c-0.26011,7.06074 -4.4094,10.86717 -10.68299,10.69912c-5.84596,-0.1566 -6.43406,-8.03646 -7.15183,-12.66572c-0.26855,-1.732 -1.06457,-5.72088 0.16892,-6.49956c0.39364,-0.73685 1.1197,-1.23117 1.95025,-1.23117c1.2498,0 2.26296,1.11929 2.26296,2.5c0,0.29693 -0.04685,0.58177 -0.13285,0.84599c1.15421,4.80537 -0.92288,12.05835 5.24511,12.05046z" fill="#ffffff"/><path d="M335.84273,181.97541c0.00132,0.14809 2.0159,0.33986 2.10554,0.34136c1.31723,0.02229 13.39995,-1.82174 10.34288,4.04753c-1.3021,2.4999 -14.95107,2.25204 -16.65721,0.46096c-2.24246,-2.35414 -1.27544,-5.14948 -1.23611,-8.27222c0.03936,-3.12559 -2.32666,-7.81867 0.38734,-9.36952c0.4876,-0.82618 1.38695,-1.38043 2.41573,-1.38043c1.5481,0 2.80308,1.25499 2.80308,2.80308c0,0.10118 -0.00537,0.2011 -0.01582,0.29951c1.20089,3.11191 -0.18009,7.20517 -0.14544,11.06972z" fill="#ffffff"/></g></g></g></svg>